<?xml version="1.0" encoding="UTF-8" standalone="no"?>
<svg width="9px" height="13px" viewBox="0 0 9 13" version="1.1" xmlns="http://www.w3.org/2000/svg" xmlns:xlink="http://www.w3.org/1999/xlink">
    <!-- Generator: Sketch 39.1 (31720) - http://www.bohemiancoding.com/sketch -->
    <title>Mask Copy 3</title>
    <desc>Created with Sketch.</desc>
    <defs></defs>
    <g id="transport" stroke="none" stroke-width="1" fill="none" fill-rule="evenodd">
        <g id="ekomers-standart-copy-7" transform="translate(-300.000000, -425.000000)" fill="#EF8F03">
            <g id="Group-10" transform="translate(300.000000, 385.833333)">
                <path d="M4.16666667,40 C1.8452381,40 0,41.8452381 0,44.1666667 C0,47.2619048 4.16666667,51.9047619 4.16666667,51.9047619 C4.16666667,51.9047619 8.33333333,47.2619048 8.33333333,44.1666667 C8.33333333,41.8452381 6.48809524,40 4.16666667,40 L4.16666667,40 Z M2.67857143,44.1666667 C2.67857143,43.3333333 3.33333333,42.6785714 4.16666667,42.6785714 C5,42.6785714 5.6547619,43.3333333 5.6547619,44.1666667 C5.6547619,45 5,45.6547619 4.16666667,45.6547619 C3.33333333,45.6547619 2.67857143,45 2.67857143,44.1666667 Z" id="Mask-Copy-3"></path>
            </g>
        </g>
    </g>
</svg>