<?xml version="1.0" encoding="UTF-8" standalone="no"?>
<svg width="12px" height="12px" viewBox="0 0 12 12" version="1.1" xmlns="http://www.w3.org/2000/svg" xmlns:xlink="http://www.w3.org/1999/xlink">
    <!-- Generator: Sketch 39.1 (31720) - http://www.bohemiancoding.com/sketch -->
    <title>Fill 4</title>
    <desc>Created with Sketch.</desc>
    <defs></defs>
    <g id="transport" stroke="none" stroke-width="1" fill="none" fill-rule="evenodd">
        <g id="Artboard-3" transform="translate(-346.000000, -791.000000)" fill="#FEFEFE">
            <g id="Group-4" transform="translate(210.833333, 780.833333)">
                <g id="Page-1" transform="translate(125.000000, 0.000000)">
                    <path d="M20.1390815,19.7150478 C20.1390815,20.2890927 19.6723961,20.7557781 19.097986,20.7557781 L12.4340253,20.7557781 C11.8596152,20.7557781 11.3929298,20.2890927 11.3929298,19.7150478 L11.3929298,15.2680253 L13.0146433,15.2680253 C12.8744185,15.6123792 12.7959073,15.9885028 12.7959073,16.3828848 C12.7959073,18.0203006 14.1280421,19.3531657 15.7661882,19.3531657 C17.4039691,19.3531657 18.7361039,18.0203006 18.7361039,16.3828848 C18.7361039,15.9885028 18.6572275,15.6123792 18.517368,15.2680253 L20.1390815,15.2680253 L20.1390815,19.7150478 Z M14.2160478,15.2680253 C14.563323,14.786368 15.1278736,14.4704972 15.7661882,14.4704972 C16.4041376,14.4704972 16.9686882,14.786368 17.3159635,15.2680253 C17.5430983,15.5820702 17.6785758,15.9662275 17.6785758,16.3828848 C17.6785758,17.4367612 16.8200646,18.2945421 15.7661882,18.2945421 C14.7119466,18.2945421 13.8541657,17.4367612 13.8541657,16.3828848 C13.8541657,15.9662275 13.9896433,15.5820702 14.2160478,15.2680253 L14.2160478,15.2680253 Z M19.700514,12.2035309 L19.9407949,12.2024354 L19.9407949,12.4416208 L19.9407949,14.0436152 L18.1050927,14.0494579 L18.0988848,12.2082781 L19.700514,12.2035309 Z M19.097986,10.951368 L12.4340253,10.951368 C11.276441,10.951368 10.3346713,11.8927725 10.3346713,13.0503567 L10.3346713,15.2680253 L10.3346713,19.7150478 C10.3346713,20.872632 11.276441,21.8144017 12.4340253,21.8144017 L19.097986,21.8144017 C20.2555702,21.8144017 21.1977051,20.872632 21.1977051,19.7150478 L21.1977051,15.2680253 L21.1977051,13.0503567 C21.1977051,11.8927725 20.2555702,10.951368 19.097986,10.951368 L19.097986,10.951368 Z" id="Fill-4"></path>
                </g>
            </g>
        </g>
    </g>
</svg>