<?xml version="1.0" encoding="UTF-8" standalone="no"?>
<svg width="12px" height="11px" viewBox="0 0 12 11" version="1.1" xmlns="http://www.w3.org/2000/svg" xmlns:xlink="http://www.w3.org/1999/xlink">
    <!-- Generator: Sketch 39.1 (31720) - http://www.bohemiancoding.com/sketch -->
    <title>Fill 4</title>
    <desc>Created with Sketch.</desc>
    <defs></defs>
    <g id="transport" stroke="none" stroke-width="1" fill="none" fill-rule="evenodd">
        <g id="Artboard-3" transform="translate(-304.000000, -792.000000)" fill="#FEFEFE">
            <g id="Group-4" transform="translate(210.833333, 780.833333)">
                <g id="Page-1" transform="translate(83.333333, 0.000000)">
                    <path d="M21.5448343,21.5113118 L19.1029522,21.5113118 L19.1029522,17.9450758 C19.1029522,17.0117051 18.7217163,16.3748511 17.8814635,16.3748511 C17.2387669,16.3748511 16.8819972,16.8046545 16.7154803,17.2191208 C16.6534017,17.3677444 16.6628961,17.5747949 16.6628961,17.7825758 L16.6628961,21.5113118 L14.2440197,21.5113118 C14.2440197,21.5113118 14.2754242,15.1946264 14.2440197,14.6202163 L16.6628961,14.6202163 L16.6628961,15.7014803 C16.805677,15.2289522 17.5783736,14.5537556 18.8126433,14.5537556 C20.3426994,14.5537556 21.5448343,15.5451882 21.5448343,17.6795983 L21.5448343,21.5113118 Z M11.7977556,13.7580534 L11.7820534,13.7580534 C11.0027837,13.7580534 10.4977556,13.2314803 10.4977556,12.5639522 C10.4977556,11.8832781 11.0181208,11.3672949 11.8127275,11.3672949 C12.6069691,11.3672949 13.0959298,11.8821826 13.1112669,12.5621264 C13.1112669,13.2296545 12.6069691,13.7580534 11.7977556,13.7580534 L11.7977556,13.7580534 Z M10.776014,21.5113118 L12.9297781,21.5113118 L12.9297781,14.6202163 L10.776014,14.6202163 L10.776014,21.5113118 Z" id="Fill-4"></path>
                </g>
            </g>
        </g>
    </g>
</svg>