<?xml version="1.0" encoding="UTF-8" standalone="no"?>
<svg width="127px" height="25px" viewBox="0 0 127 25" version="1.1" xmlns="http://www.w3.org/2000/svg" xmlns:xlink="http://www.w3.org/1999/xlink">
    <!-- Generator: Sketch 39.1 (31720) - http://www.bohemiancoding.com/sketch -->
    <title>Group 4</title>
    <desc>Created with Sketch.</desc>
    <defs></defs>
    <g id="Page-1" stroke="none" stroke-width="1" fill="none" fill-rule="evenodd">
        <g id="Artboard-2" transform="translate(-172.000000, -566.000000)">
            <g id="Group-4" transform="translate(172.000000, 566.000000)">
                <path d="M58.3853,2.3269 C57.4963,2.3389 56.7003,2.5299 55.9843,2.9799 C55.6743,3.1749 55.3743,3.3989 55.1103,3.6529 C54.3953,4.3419 53.6963,5.0469 53.0003,5.7569 C52.5063,6.2619 52.5623,6.9649 53.1113,7.3559 C53.5273,7.6529 54.0583,7.5909 54.4723,7.1809 C55.1413,6.5199 55.8033,5.8519 56.4683,5.1879 C57.0403,4.6179 57.7243,4.3349 58.5373,4.3979 C59.1683,4.4469 59.6803,4.7449 60.1503,5.1529 C60.5963,5.5429 61.2213,5.4889 61.5893,5.0659 C61.9663,4.6349 61.9303,4.0389 61.5003,3.6249 C60.6173,2.7749 59.5563,2.3589 58.3853,2.3269 M57.6313,16.8759 C54.5273,13.7719 51.4403,10.6849 48.3433,7.5899 C48.3893,7.5409 48.4463,7.4749 48.5073,7.4149 C50.1853,5.7349 51.8663,4.0599 53.5413,2.3789 C54.5083,1.4069 55.6453,0.7669 56.9893,0.4659 C59.5603,-0.1121 62.5123,1.1269 63.8703,3.3909 C65.1283,5.4859 65.2243,7.6459 64.1883,9.8519 C63.8833,10.5019 63.4453,11.0649 62.9403,11.5719 C61.2033,13.3159 59.4603,15.0559 57.7203,16.7959 C57.6893,16.8249 57.6563,16.8529 57.6313,16.8759" id="Fill-496" fill="#006737"></path>
                <path d="M40.521,18.0564 C40.545,16.3244 41.187,14.7524 42.47,13.4554 C43.668,12.2424 44.889,11.0504 46.083,9.8314 C46.666,9.2374 47.628,9.4664 47.821,10.2374 C47.922,10.6424 47.781,10.9724 47.492,11.2604 C46.309,12.4394 45.13,13.6244 43.948,14.8034 C43.43,15.3214 43.039,15.9134 42.788,16.6034 C41.852,19.1744 43.488,22.0764 46.175,22.5924 C47.809,22.9074 49.216,22.4494 50.393,21.2864 C51.581,20.1134 52.759,18.9274 53.937,17.7434 C54.216,17.4624 54.533,17.3064 54.93,17.3824 C55.632,17.5174 55.96,18.3414 55.552,18.9304 C55.512,18.9894 55.469,19.0444 55.419,19.0934 C54.077,20.4254 52.777,21.8014 51.38,23.0744 C49.895,24.4254 48.089,24.9114 46.1,24.6044 C43.964,24.2764 42.379,23.1214 41.32,21.2514 C40.778,20.2934 40.536,19.2464 40.521,18.0564" id="Fill-497" fill="#006737"></path>
                <path d="M15.9165,5.5905 C15.8385,5.6385 15.7295,5.6625 15.5935,5.6625 L15.5045,5.6625 C14.7985,5.6235 13.9155,5.5745 12.8565,5.5165 C11.7975,5.4565 10.6405,5.4285 9.3855,5.4285 C8.7975,5.4285 8.2625,5.5065 7.7815,5.6625 C7.3015,5.8195 6.8945,6.0905 6.5605,6.4725 C6.2275,6.8545 5.9725,7.3695 5.7965,8.0175 C5.6195,8.6635 5.5305,9.4695 5.5305,10.4295 L5.5305,14.1065 C5.5305,15.1265 5.6345,15.9605 5.8405,16.6075 C6.0465,17.2545 6.3105,17.7655 6.6345,18.1385 C6.9585,18.5105 7.3155,18.7665 7.7085,18.9025 C8.1005,19.0395 8.4735,19.1085 8.8265,19.1085 C9.6305,19.1085 10.3855,19.0785 11.0915,19.0205 L11.0915,12.2525 C11.0915,12.0965 11.1455,11.9585 11.2535,11.8425 C11.3605,11.7245 11.4935,11.6645 11.6505,11.6645 L15.4165,11.6645 C15.5735,11.6645 15.7105,11.7245 15.8285,11.8425 C15.9455,11.9585 16.0045,12.0965 16.0045,12.2525 L16.0045,22.1395 C16.0045,22.5115 15.8085,22.7365 15.4165,22.8165 C14.6115,22.9725 13.6805,23.1145 12.6215,23.2405 C11.5625,23.3685 10.2975,23.4335 8.8265,23.4335 C8.2765,23.4335 7.6835,23.3745 7.0465,23.2575 C6.4085,23.1385 5.7815,22.9435 5.1635,22.6675 C4.5455,22.3945 3.9525,22.0205 3.3835,21.5505 C2.8145,21.0795 2.3095,20.5005 1.8685,19.8155 C1.4265,19.1275 1.0785,18.3095 0.8245,17.3585 C0.5685,16.4055 0.4415,15.3135 0.4415,14.0765 L0.4415,10.4295 C0.4415,8.5475 0.7065,7.0015 1.2355,5.7945 C1.7655,4.5905 2.4565,3.6335 3.3105,2.9275 C4.1625,2.2215 5.1245,1.7315 6.1935,1.4555 C7.2615,1.1815 8.3265,1.0435 9.3855,1.0435 C10.8565,1.0435 12.1115,1.1275 13.1515,1.2935 C14.1905,1.4605 14.9845,1.6035 15.5335,1.7215 C15.8675,1.7785 16.0345,1.9275 16.0345,2.1615 L16.0345,5.2805 C16.0345,5.4375 15.9945,5.5405 15.9165,5.5905" id="Fill-498" fill="#221F20"></path>
                <path d="M31.8613,10.4802 C31.8613,8.6882 31.5623,7.3972 30.9643,6.6102 C30.3653,5.8232 29.4493,5.4282 28.2133,5.4282 C26.9773,5.4282 26.0653,5.8232 25.4773,6.6102 C24.8883,7.3972 24.5953,8.6882 24.5953,10.4802 L24.5953,13.9982 C24.5953,15.7902 24.8883,17.0802 25.4773,17.8682 C26.0653,18.6562 26.9773,19.0492 28.2133,19.0492 C29.4493,19.0492 30.3653,18.6562 30.9643,17.8682 C31.5623,17.0802 31.8613,15.7902 31.8613,13.9982 L31.8613,10.4802 Z M36.8923,13.9892 C36.8923,15.6952 36.6673,17.1472 36.2163,18.3432 C35.7663,19.5412 35.1493,20.5152 34.3663,21.2702 C33.5833,22.0252 32.6623,22.5762 31.6053,22.9182 C30.5483,23.2612 29.4123,23.4332 28.1983,23.4332 C26.9853,23.4332 25.8493,23.2612 24.7913,22.9182 C23.7343,22.5762 22.8143,22.0252 22.0303,21.2702 C21.2473,20.5152 20.6303,19.5412 20.1803,18.3432 C19.7293,17.1472 19.5053,15.6952 19.5053,13.9892 L19.5053,10.4872 C19.5053,8.7822 19.7293,7.3312 20.1803,6.1332 C20.6303,4.9372 21.2473,3.9612 22.0303,3.2072 C22.8143,2.4522 23.7343,1.9022 24.7913,1.5582 C25.8493,1.2162 26.9853,1.0442 28.1983,1.0442 C29.4123,1.0442 30.5483,1.2162 31.6053,1.5582 C32.6623,1.9022 33.5833,2.4522 34.3663,3.2072 C35.1493,3.9612 35.7663,4.9372 36.2163,6.1332 C36.6673,7.3312 36.8923,8.7822 36.8923,10.4872 L36.8923,13.9892 Z" id="Fill-499" fill="#221F20"></path>
                <path d="M88.2427,22.8571 C88.1347,22.9161 88.0217,22.9461 87.9047,22.9461 L84.0207,22.9461 C83.8837,22.9461 83.7707,22.8861 83.6827,22.7691 C83.5947,22.6521 83.5497,22.5151 83.5497,22.3571 L83.5497,10.0881 C83.5497,9.9321 83.5007,9.8541 83.4027,9.8541 C83.3247,9.8541 83.2457,9.9221 83.1677,10.0601 L80.5197,14.9141 C80.3237,15.2471 80.0287,15.4141 79.6367,15.4141 L77.2837,15.4141 C76.8907,15.4141 76.5967,15.2471 76.4007,14.9141 L73.7527,10.0601 C73.6747,9.9221 73.5957,9.8541 73.5177,9.8541 C73.4197,9.8541 73.3707,9.9321 73.3707,10.0881 L73.3707,22.3571 C73.3707,22.5151 73.3267,22.6521 73.2377,22.7691 C73.1497,22.8861 73.0367,22.9461 72.8997,22.9461 L69.0167,22.9461 C68.8987,22.9461 68.7857,22.9161 68.6787,22.8571 C68.5697,22.7971 68.5167,22.6911 68.5167,22.5341 L68.5167,2.0861 C68.5167,1.7731 68.6147,1.5281 68.8107,1.3521 C69.0057,1.1731 69.2617,1.0861 69.5757,1.0861 L72.3407,1.0861 C72.9287,1.0861 73.3607,1.3521 73.6357,1.8801 L78.1367,10.2651 C78.2547,10.5211 78.3617,10.6481 78.4607,10.6481 C78.5387,10.6481 78.6467,10.5211 78.7837,10.2651 L83.2857,1.8801 C83.5597,1.3521 83.9917,1.0861 84.5797,1.0861 L87.3457,1.0861 C87.6587,1.0861 87.9137,1.1781 88.1097,1.3661 C88.3057,1.5521 88.4047,1.8011 88.4047,2.1161 L88.4047,22.5341 C88.4047,22.6911 88.3497,22.7971 88.2427,22.8571" id="Fill-500" fill="#221F20"></path>
                <path d="M105.3208,22.8279 C104.8108,22.9059 104.1288,22.9899 103.2758,23.0779 C102.4228,23.1659 101.2018,23.2109 99.6128,23.2109 C98.6718,23.2109 97.7678,23.1319 96.9018,22.9749 C96.0338,22.8189 95.2708,22.5149 94.6098,22.0629 C93.9488,21.6119 93.4208,20.9709 93.0268,20.1369 C92.6318,19.3029 92.4348,18.2199 92.4348,16.8859 L92.4348,7.1169 C92.4348,5.7839 92.6318,4.7049 93.0268,3.8809 C93.4208,3.0569 93.9488,2.4199 94.6098,1.9699 C95.2708,1.5179 96.0388,1.2139 96.9158,1.0569 C97.7918,0.8999 98.7018,0.8209 99.6428,0.8209 C100.4268,0.8209 101.1188,0.8359 101.7168,0.8659 C102.3148,0.8949 102.8398,0.9309 103.2908,0.9699 C103.7418,1.0079 104.1288,1.0469 104.4528,1.0859 C104.7768,1.1259 105.0658,1.1649 105.3208,1.2039 C105.7128,1.2639 105.9088,1.4589 105.9088,1.7919 L105.9088,4.5289 C105.9088,4.6859 105.8508,4.8229 105.7328,4.9399 C105.6148,5.0579 105.4778,5.1169 105.3208,5.1169 L99.3488,5.1169 C98.6618,5.1169 98.1768,5.2589 97.8928,5.5439 C97.6078,5.8279 97.4658,6.3519 97.4658,7.1169 L97.4658,9.7949 L105.0858,9.7949 C105.2428,9.7949 105.3798,9.8529 105.4978,9.9719 C105.6148,10.0889 105.6738,10.2269 105.6738,10.3829 L105.6738,13.1789 C105.6738,13.3349 105.6148,13.4729 105.4978,13.5899 C105.3798,13.7069 105.2428,13.7659 105.0858,13.7659 L97.4658,13.7659 L97.4658,16.8859 C97.4658,17.6499 97.6078,18.1749 97.8928,18.4579 C98.1768,18.7429 98.6618,18.8859 99.3488,18.8859 L105.3208,18.8859 C105.4778,18.8859 105.6148,18.9439 105.7328,19.0619 C105.8508,19.1799 105.9088,19.3179 105.9088,19.4739 L105.9088,22.2099 C105.9088,22.5629 105.7128,22.7689 105.3208,22.8279" id="Fill-501" fill="#221F20"></path>
                <path d="M121.061,10.1189 C121.061,9.1189 120.958,8.2949 120.752,7.6459 C120.546,6.9999 120.252,6.4849 119.869,6.1019 C119.487,5.7209 119.031,5.4559 118.501,5.3079 C117.972,5.1619 117.373,5.0879 116.706,5.0879 C116.334,5.0879 115.946,5.0929 115.545,5.1019 C115.142,5.1119 114.834,5.1279 114.618,5.1459 L114.618,18.8859 C114.834,18.9059 115.142,18.9209 115.545,18.9299 C115.946,18.9399 116.334,18.9439 116.706,18.9439 C117.373,18.9439 117.972,18.8719 118.501,18.7229 C119.031,18.5779 119.487,18.3119 119.869,17.9299 C120.252,17.5469 120.546,17.0329 120.752,16.3849 C120.958,15.7369 121.061,14.9139 121.061,13.9139 L121.061,10.1189 Z M126.092,13.9139 C126.092,15.4639 125.876,16.8209 125.444,17.9889 C125.013,19.1559 124.395,20.1269 123.591,20.8999 C122.786,21.6769 121.806,22.2549 120.649,22.6369 C119.491,23.0179 118.178,23.2109 116.706,23.2109 C116.098,23.2109 115.486,23.1949 114.868,23.1669 C114.25,23.1369 113.662,23.1019 113.103,23.0629 C112.544,23.0229 112.033,22.9789 111.573,22.9319 C111.112,22.8819 110.734,22.8289 110.44,22.7689 C110.165,22.7299 109.955,22.6329 109.808,22.4749 C109.661,22.3179 109.587,22.0739 109.587,21.7399 L109.587,2.2929 C109.587,1.9589 109.661,1.7149 109.808,1.5559 C109.955,1.3999 110.165,1.3029 110.44,1.2629 C110.734,1.2049 111.112,1.1499 111.573,1.0999 C112.033,1.0529 112.544,1.0089 113.103,0.9689 C113.662,0.9299 114.25,0.8939 114.868,0.8659 C115.486,0.8359 116.098,0.8209 116.706,0.8209 C118.178,0.8209 119.491,1.0129 120.649,1.3939 C121.806,1.7769 122.786,2.3559 123.591,3.1309 C124.395,3.9069 125.013,4.8769 125.444,6.0439 C125.876,7.2109 126.092,8.5689 126.092,10.1189 L126.092,13.9139 Z" id="Fill-502" fill="#221F20"></path>
            </g>
        </g>
    </g>
</svg>