<?xml version="1.0" encoding="UTF-8" standalone="no"?>
<svg width="127px" height="23px" viewBox="0 0 127 23" version="1.1" xmlns="http://www.w3.org/2000/svg" xmlns:xlink="http://www.w3.org/1999/xlink">
    <!-- Generator: Sketch 39.1 (31720) - http://www.bohemiancoding.com/sketch -->
    <title>Group 2</title>
    <desc>Created with Sketch.</desc>
    <defs></defs>
    <g id="Page-1" stroke="none" stroke-width="1" fill="none" fill-rule="evenodd">
        <g id="Artboard-2" transform="translate(-164.000000, -146.000000)">
            <g id="Group-2" transform="translate(164.000000, 146.000000)">
                <path d="M53.5303,4.9392 C53.5303,2.6242 52.3613,0.7482 50.9203,0.7482 C49.4793,0.7482 48.3113,2.6242 48.3113,4.9392 C48.3113,6.9192 49.1663,8.5752 50.3153,9.0142 L50.3153,11.6122 C49.9643,11.7342 49.7103,12.0642 49.7103,12.4572 L49.7103,22.0202 C49.7103,22.5152 50.1113,22.9172 50.6063,22.9172 L51.2343,22.9172 C51.7283,22.9172 52.1303,22.5152 52.1303,22.0202 L52.1303,12.4562 C52.1303,12.0642 51.8773,11.7342 51.5263,11.6122 L51.5263,9.0142 C52.6743,8.5752 53.5303,6.9192 53.5303,4.9392 M43.8073,1.7472 L43.8073,7.9332 C43.8073,8.2622 42.7863,9.0662 42.1033,9.5682 L42.1033,11.3912 C42.4553,11.5132 42.7093,11.8432 42.7093,12.2362 L42.7093,21.9172 C42.7093,22.4122 42.3073,22.8132 41.8133,22.8132 L41.1853,22.8132 C40.6903,22.8132 40.2893,22.4122 40.2893,21.9172 L40.2893,12.2362 C40.2893,11.8432 40.5433,11.5132 40.8943,11.3912 L40.8943,9.5862 C40.1703,9.0882 39.0573,8.2662 39.0573,7.9332 L39.0573,1.7472 C39.0573,1.2512 39.2973,0.8512 39.8323,0.8512 L40.1533,0.8512 L40.1533,7.3032 C40.1533,7.4572 40.3473,7.5812 40.5883,7.5812 C40.8293,7.5812 41.0253,7.4572 41.0253,7.3032 L41.0253,0.8512 L41.8323,0.8512 L41.8323,7.3032 C41.8323,7.4572 42.0283,7.5812 42.2693,7.5812 C42.5103,7.5812 42.7063,7.4572 42.7063,7.3032 L42.7063,0.8512 L42.8383,0.8512 C43.3743,0.8512 43.8073,1.2512 43.8073,1.7472" id="Fill-21" fill="#E32A2C"></path>
                <path d="M14.1577,6.6911 C14.0867,6.7361 13.9887,6.7571 13.8647,6.7571 L13.7857,6.7571 C13.1467,6.7221 12.3497,6.6781 11.3917,6.6241 C10.4347,6.5711 9.3877,6.5451 8.2537,6.5451 C7.7217,6.5451 7.2387,6.6161 6.8037,6.7571 C6.3697,6.9001 6.0017,7.1431 5.7007,7.4891 C5.3987,7.8351 5.1687,8.3001 5.0087,8.8851 C4.8497,9.4701 4.7697,10.1971 4.7697,11.0661 L4.7697,14.3901 C4.7697,15.3121 4.8627,16.0661 5.0487,16.6511 C5.2347,17.2361 5.4747,17.6971 5.7667,18.0341 C6.0597,18.3711 6.3827,18.6021 6.7377,18.7251 C7.0917,18.8501 7.4287,18.9121 7.7477,18.9121 C8.4747,18.9121 9.1577,18.8851 9.7957,18.8321 L9.7957,12.7151 C9.7957,12.5731 9.8447,12.4491 9.9427,12.3431 C10.0397,12.2361 10.1597,12.1831 10.3017,12.1831 L13.7057,12.1831 C13.8477,12.1831 13.9717,12.2361 14.0777,12.3431 C14.1847,12.4491 14.2377,12.5731 14.2377,12.7151 L14.2377,21.6511 C14.2377,21.9881 14.0597,22.1921 13.7057,22.2631 C12.9787,22.4051 12.1367,22.5331 11.1787,22.6481 C10.2217,22.7631 9.0777,22.8211 7.7477,22.8211 C7.2517,22.8211 6.7157,22.7681 6.1397,22.6611 C5.5627,22.5551 4.9957,22.3781 4.4367,22.1301 C3.8787,21.8821 3.3417,21.5451 2.8277,21.1191 C2.3137,20.6941 1.8577,20.1711 1.4587,19.5501 C1.0597,18.9291 0.7447,18.1891 0.5147,17.3291 C0.2837,16.4691 0.1687,15.4811 0.1687,14.3641 L0.1687,11.0661 C0.1687,9.3641 0.4077,7.9681 0.8867,6.8771 C1.3657,5.7871 1.9907,4.9221 2.7617,4.2841 C3.5327,3.6461 4.4017,3.2031 5.3677,2.9541 C6.3337,2.7061 7.2957,2.5821 8.2537,2.5821 C9.5837,2.5821 10.7177,2.6581 11.6577,2.8081 C12.5977,2.9591 13.3157,3.0871 13.8117,3.1941 C14.1137,3.2471 14.2637,3.3801 14.2637,3.5931 L14.2637,6.4121 C14.2637,6.5541 14.2287,6.6471 14.1577,6.6911" id="Fill-23" fill="#020302"></path>
                <path d="M28.5723,11.112 C28.5723,9.492 28.3013,8.325 27.7613,7.613 C27.2203,6.901 26.3913,6.545 25.2743,6.545 C24.1573,6.545 23.3333,6.901 22.8013,7.613 C22.2693,8.325 22.0033,9.492 22.0033,11.112 L22.0033,14.291 C22.0033,15.912 22.2693,17.078 22.8013,17.79 C23.3333,18.502 24.1573,18.858 25.2743,18.858 C26.3913,18.858 27.2203,18.502 27.7613,17.79 C28.3013,17.078 28.5723,15.912 28.5723,14.291 L28.5723,11.112 Z M33.1203,14.284 C33.1203,15.826 32.9163,17.139 32.5093,18.22 C32.1023,19.302 31.5443,20.184 30.8363,20.866 C30.1283,21.549 29.2963,22.046 28.3413,22.356 C27.3853,22.666 26.3583,22.821 25.2613,22.821 C24.1633,22.821 23.1373,22.666 22.1813,22.356 C21.2253,22.046 20.3933,21.549 19.6853,20.866 C18.9773,20.184 18.4203,19.302 18.0123,18.22 C17.6053,17.139 17.4023,15.826 17.4023,14.284 L17.4023,11.119 C17.4023,9.577 17.6053,8.265 18.0123,7.183 C18.4203,6.102 18.9773,5.219 19.6853,4.537 C20.3933,3.854 21.2253,3.358 22.1813,3.047 C23.1373,2.737 24.1633,2.582 25.2613,2.582 C26.3583,2.582 27.3853,2.737 28.3413,3.047 C29.2963,3.358 30.1283,3.854 30.8363,4.537 C31.5443,5.219 32.1023,6.102 32.5093,7.183 C32.9163,8.265 33.1203,9.577 33.1203,11.119 L33.1203,14.284 Z" id="Fill-25" fill="#020302"></path>
                <path d="M70.8232,6.3318 C70.7172,6.4378 70.5922,6.4918 70.4512,6.4918 L65.0522,6.4918 C64.4312,6.4918 63.9922,6.6198 63.7352,6.8768 C63.4782,7.1338 63.3502,7.6088 63.3502,8.2998 L63.3502,10.6938 L70.2382,10.6938 C70.3802,10.6938 70.5042,10.7468 70.6102,10.8528 C70.7172,10.9598 70.7702,11.0838 70.7702,11.2258 L70.7702,13.7518 C70.7702,13.8938 70.7172,14.0178 70.6102,14.1238 C70.5042,14.2308 70.3802,14.2838 70.2382,14.2838 L63.3502,14.2838 L63.3502,22.0498 C63.3502,22.1918 63.2962,22.3158 63.1892,22.4218 C63.0822,22.5288 62.9572,22.5818 62.8142,22.5818 L59.3372,22.5818 C59.1942,22.5818 59.0702,22.5288 58.9622,22.4218 C58.8552,22.3158 58.8022,22.1918 58.8022,22.0498 L58.8022,8.2998 C58.8022,7.0948 58.9802,6.1188 59.3372,5.3748 C59.6932,4.6298 60.1702,4.0538 60.7682,3.6458 C61.3652,3.2378 62.0602,2.9638 62.8532,2.8208 C63.6452,2.6798 64.4672,2.6088 65.3182,2.6088 C66.0272,2.6088 66.6522,2.6218 67.1932,2.6488 C67.7332,2.6748 68.2082,2.7058 68.6162,2.7418 C69.0232,2.7768 69.3742,2.8128 69.6662,2.8478 C69.9592,2.8838 70.2202,2.9188 70.4512,2.9538 C70.8052,3.0078 70.9832,3.1848 70.9832,3.4858 L70.9832,5.9598 C70.9832,6.1018 70.9292,6.2258 70.8232,6.3318" id="Fill-27" fill="#020302"></path>
                <path d="M84.7856,11.112 C84.7856,9.492 84.5156,8.325 83.9746,7.613 C83.4336,6.901 82.6046,6.545 81.4876,6.545 C80.3706,6.545 79.5466,6.901 79.0146,7.613 C78.4826,8.325 78.2166,9.492 78.2166,11.112 L78.2166,14.291 C78.2166,15.912 78.4826,17.078 79.0146,17.79 C79.5466,18.502 80.3706,18.858 81.4876,18.858 C82.6046,18.858 83.4336,18.502 83.9746,17.79 C84.5156,17.078 84.7856,15.912 84.7856,14.291 L84.7856,11.112 Z M89.3336,14.284 C89.3336,15.826 89.1296,17.139 88.7226,18.22 C88.3156,19.302 87.7576,20.184 87.0496,20.866 C86.3416,21.549 85.5096,22.046 84.5536,22.356 C83.5986,22.666 82.5716,22.821 81.4746,22.821 C80.3766,22.821 79.3506,22.666 78.3946,22.356 C77.4386,22.046 76.6066,21.549 75.8986,20.866 C75.1906,20.184 74.6336,19.302 74.2256,18.22 C73.8186,17.139 73.6156,15.826 73.6156,14.284 L73.6156,11.119 C73.6156,9.577 73.8186,8.265 74.2256,7.183 C74.6336,6.102 75.1906,5.219 75.8986,4.537 C76.6066,3.854 77.4386,3.358 78.3946,3.047 C79.3506,2.737 80.3766,2.582 81.4746,2.582 C82.5716,2.582 83.5986,2.737 84.5536,3.047 C85.5096,3.358 86.3416,3.854 87.0496,4.537 C87.7576,5.219 88.3156,6.102 88.7226,7.183 C89.1296,8.265 89.3336,9.577 89.3336,11.119 L89.3336,14.284 Z" id="Fill-29" fill="#020302"></path>
                <path d="M103.3491,11.112 C103.3491,9.492 103.0791,8.325 102.5381,7.613 C101.9971,6.901 101.1681,6.545 100.0511,6.545 C98.9341,6.545 98.1101,6.901 97.5781,7.613 C97.0461,8.325 96.7801,9.492 96.7801,11.112 L96.7801,14.291 C96.7801,15.912 97.0461,17.078 97.5781,17.79 C98.1101,18.502 98.9341,18.858 100.0511,18.858 C101.1681,18.858 101.9971,18.502 102.5381,17.79 C103.0791,17.078 103.3491,15.912 103.3491,14.291 L103.3491,11.112 Z M107.8971,14.284 C107.8971,15.826 107.6931,17.139 107.2861,18.22 C106.8791,19.302 106.3211,20.184 105.6131,20.866 C104.9051,21.549 104.0731,22.046 103.1171,22.356 C102.1621,22.666 101.1351,22.821 100.0381,22.821 C98.9401,22.821 97.9141,22.666 96.9581,22.356 C96.0021,22.046 95.1701,21.549 94.4621,20.866 C93.7541,20.184 93.1971,19.302 92.7891,18.22 C92.3821,17.139 92.1791,15.826 92.1791,14.284 L92.1791,11.119 C92.1791,9.577 92.3821,8.265 92.7891,7.183 C93.1971,6.102 93.7541,5.219 94.4621,4.537 C95.1701,3.854 96.0021,3.358 96.9581,3.047 C97.9141,2.737 98.9401,2.582 100.0381,2.582 C101.1351,2.582 102.1621,2.737 103.1171,3.047 C104.0731,3.358 104.9051,3.854 105.6131,4.537 C106.3211,5.219 106.8791,6.102 107.2861,7.183 C107.6931,8.265 107.8971,9.577 107.8971,11.119 L107.8971,14.284 Z" id="Fill-31" fill="#020302"></path>
                <path d="M121.5669,10.9861 C121.5669,10.0821 121.4739,9.3371 121.2879,8.7521 C121.1019,8.1671 120.8359,7.7011 120.4899,7.3561 C120.1439,7.0101 119.7319,6.7711 119.2529,6.6381 C118.7739,6.5051 118.2329,6.4381 117.6309,6.4381 C117.2939,6.4381 116.9439,6.4431 116.5799,6.4521 C116.2169,6.4611 115.9379,6.4741 115.7429,6.4911 L115.7429,18.9111 C115.9379,18.9291 116.2169,18.9431 116.5799,18.9511 C116.9439,18.9601 117.2939,18.9651 117.6309,18.9651 C118.2329,18.9651 118.7739,18.8981 119.2529,18.7651 C119.7319,18.6321 120.1439,18.3931 120.4899,18.0471 C120.8359,17.7011 121.1019,17.2361 121.2879,16.6511 C121.4739,16.0661 121.5669,15.3211 121.5669,14.4171 L121.5669,10.9861 Z M126.1149,14.4171 C126.1149,15.8181 125.9199,17.0461 125.5299,18.1001 C125.1399,19.1551 124.5809,20.0331 123.8539,20.7331 C123.1269,21.4341 122.2409,21.9571 121.1949,22.3021 C120.1479,22.6481 118.9609,22.8211 117.6309,22.8211 C117.0809,22.8211 116.5269,22.8081 115.9689,22.7811 C115.4099,22.7541 114.8779,22.7231 114.3729,22.6881 C113.8679,22.6521 113.4059,22.6121 112.9899,22.5681 C112.5729,22.5241 112.2319,22.4751 111.9659,22.4221 C111.7179,22.3871 111.5269,22.2981 111.3939,22.1561 C111.2609,22.0141 111.1949,21.7931 111.1949,21.4911 L111.1949,3.9121 C111.1949,3.6101 111.2609,3.3891 111.3939,3.2471 C111.5269,3.1051 111.7179,3.0161 111.9659,2.9811 C112.2319,2.9281 112.5729,2.8791 112.9899,2.8341 C113.4059,2.7901 113.8679,2.7511 114.3729,2.7151 C114.8779,2.6791 115.4099,2.6481 115.9689,2.6221 C116.5269,2.5951 117.0809,2.5821 117.6309,2.5821 C118.9609,2.5821 120.1479,2.7551 121.1949,3.1001 C122.2409,3.4461 123.1269,3.9691 123.8539,4.6701 C124.5809,5.3701 125.1399,6.2481 125.5299,7.3021 C125.9199,8.3581 126.1149,9.5861 126.1149,10.9861 L126.1149,14.4171 Z" id="Fill-33" fill="#020302"></path>
            </g>
        </g>
    </g>
</svg>