<?xml version="1.0" encoding="UTF-8" standalone="no"?>
<svg width="126px" height="22px" viewBox="0 0 126 22" version="1.1" xmlns="http://www.w3.org/2000/svg" xmlns:xlink="http://www.w3.org/1999/xlink">
    <!-- Generator: Sketch 39.1 (31720) - http://www.bohemiancoding.com/sketch -->
    <title>Group</title>
    <desc>Created with Sketch.</desc>
    <defs>
        <polygon id="path-1" points="0 596.28 841.89 596.28 841.89 0.999 0 0.999"></polygon>
    </defs>
    <g id="Page-1" stroke="none" stroke-width="1" fill="none" fill-rule="evenodd">
        <g transform="translate(-434.000000, -286.000000)">
            <mask id="mask-2" fill="white">
                <use xlink:href="#path-1"></use>
            </mask>
            <g id="Clip-104"></g>
            <g id="Group" mask="url(#mask-2)">
                <g transform="translate(434.000000, 286.000000)">
                    <path d="M15.583,4.7639 C15.508,4.8109 15.405,4.8339 15.274,4.8339 L15.19,4.8339 C14.519,4.7969 13.679,4.7499 12.671,4.6939 C11.662,4.6379 10.561,4.6099 9.366,4.6099 C8.806,4.6099 8.297,4.6849 7.84,4.8339 C7.382,4.9839 6.995,5.2399 6.678,5.6039 C6.359,5.9679 6.118,6.4579 5.95,7.0749 C5.782,7.6909 5.698,8.4559 5.698,9.3709 L5.698,12.8709 C5.698,13.8419 5.796,14.6359 5.992,15.2519 C6.187,15.8679 6.439,16.3519 6.748,16.7079 C7.056,17.0609 7.395,17.3059 7.77,17.4349 C8.143,17.5669 8.498,17.6319 8.834,17.6319 C9.599,17.6319 10.318,17.6039 10.99,17.5479 L10.99,11.1069 C10.99,10.9579 11.042,10.8269 11.144,10.7149 C11.247,10.6029 11.373,10.5469 11.522,10.5469 L15.106,10.5469 C15.256,10.5469 15.387,10.6029 15.499,10.7149 C15.611,10.8269 15.667,10.9579 15.667,11.1069 L15.667,20.5149 C15.667,20.8709 15.479,21.0859 15.106,21.1609 C14.341,21.3089 13.455,21.4449 12.447,21.5659 C11.437,21.6879 10.233,21.7479 8.834,21.7479 C8.311,21.7479 7.746,21.6929 7.14,21.5799 C6.533,21.4689 5.936,21.2819 5.347,21.0189 C4.759,20.7589 4.195,20.4039 3.653,19.9559 C3.112,19.5079 2.631,18.9579 2.211,18.3039 C1.791,17.6509 1.459,16.8709 1.217,15.9659 C0.974,15.0589 0.853,14.0189 0.853,12.8429 L0.853,9.3709 C0.853,7.5779 1.104,6.1079 1.608,4.9599 C2.113,3.8119 2.77,2.9019 3.583,2.2299 C4.395,1.5579 5.31,1.0909 6.328,0.8299 C7.345,0.5679 8.357,0.4379 9.366,0.4379 C10.766,0.4379 11.961,0.5169 12.951,0.6749 C13.939,0.8339 14.696,0.9689 15.219,1.0819 C15.536,1.1379 15.695,1.2769 15.695,1.5009 L15.695,4.4699 C15.695,4.6199 15.657,4.7179 15.583,4.7639" id="Fill-126" fill="#020302"></path>
                    <path d="M30.7607,9.4187 C30.7607,7.7127 30.4757,6.4847 29.9067,5.7347 C29.3367,4.9847 28.4647,4.6097 27.2887,4.6097 C26.1117,4.6097 25.2437,4.9847 24.6837,5.7347 C24.1237,6.4847 23.8437,7.7127 23.8437,9.4187 L23.8437,12.7657 C23.8437,14.4737 24.1237,15.7007 24.6837,16.4507 C25.2437,17.2007 26.1117,17.5757 27.2887,17.5757 C28.4647,17.5757 29.3367,17.2007 29.9067,16.4507 C30.4757,15.7007 30.7607,14.4737 30.7607,12.7657 L30.7607,9.4187 Z M35.5497,12.7587 C35.5497,14.3827 35.3347,15.7657 34.9067,16.9027 C34.4777,18.0427 33.8907,18.9717 33.1447,19.6897 C32.3997,20.4087 31.5237,20.9327 30.5167,21.2577 C29.5107,21.5847 28.4297,21.7477 27.2737,21.7477 C26.1187,21.7477 25.0377,21.5847 24.0307,21.2577 C23.0247,20.9327 22.1487,20.4087 21.4027,19.6897 C20.6567,18.9717 20.0707,18.0427 19.6417,16.9027 C19.2127,15.7657 18.9987,14.3827 18.9987,12.7587 L18.9987,9.4257 C18.9987,7.8017 19.2127,6.4207 19.6417,5.2817 C20.0707,4.1437 20.6567,3.2137 21.4027,2.4957 C22.1487,1.7767 23.0247,1.2537 24.0307,0.9267 C25.0377,0.6007 26.1187,0.4367 27.2737,0.4367 C28.4297,0.4367 29.5107,0.6007 30.5167,0.9267 C31.5237,1.2537 32.3997,1.7767 33.1447,2.4957 C33.8907,3.2137 34.4777,4.1437 34.9067,5.2817 C35.3347,6.4207 35.5497,7.8017 35.5497,9.4257 L35.5497,12.7587 Z" id="Fill-127" fill="#020302"></path>
                    <path d="M97.4922,4.4841 C97.3702,4.5871 97.2352,4.6381 97.0862,4.6381 L92.5492,4.6381 L92.5492,20.9361 C92.5492,21.0861 92.4932,21.2151 92.3812,21.3281 C92.2692,21.4401 92.1382,21.4961 91.9892,21.4961 L88.3212,21.4961 C88.1712,21.4961 88.0402,21.4401 87.9292,21.3281 C87.8162,21.2151 87.7622,21.0861 87.7622,20.9361 L87.7622,4.6381 L83.1962,4.6381 C83.0462,4.6381 82.9162,4.5871 82.8042,4.4841 C82.6922,4.3811 82.6372,4.2551 82.6372,4.1061 L82.6372,1.2211 C82.6372,1.0721 82.6922,0.9461 82.8042,0.8431 C82.9162,0.7411 83.0462,0.6891 83.1962,0.6891 L97.0862,0.6891 C97.2352,0.6891 97.3702,0.7411 97.4922,0.8431 C97.6132,0.9461 97.6742,1.0721 97.6742,1.2211 L97.6742,4.1061 C97.6742,4.2551 97.6132,4.3811 97.4922,4.4841" id="Fill-128" fill="#020302"></path>
                    <path d="M104.9687,21.3279 C104.8657,21.4399 104.7397,21.4959 104.5907,21.4959 L100.8377,21.4959 C100.6887,21.4959 100.5667,21.4399 100.4737,21.3279 C100.3807,21.2169 100.3337,21.0869 100.3337,20.9359 L100.3337,1.2219 C100.3337,0.8679 100.5027,0.6889 100.8377,0.6889 L104.5907,0.6889 C104.9457,0.6889 105.1227,0.8679 105.1227,1.2219 L105.1227,20.9359 C105.1227,21.0869 105.0717,21.2169 104.9687,21.3279" id="Fill-129" fill="#020302"></path>
                    <path d="M125.873,21.2155 C125.873,21.4025 125.752,21.4955 125.51,21.4955 L121.057,21.4955 C120.869,21.4955 120.726,21.4635 120.622,21.3985 C120.519,21.3325 120.422,21.2265 120.328,21.0755 L116.688,15.1665 L113.411,20.9365 C113.318,21.1045 113.216,21.2395 113.103,21.3415 C112.991,21.4445 112.86,21.4955 112.711,21.4955 L108.566,21.4955 C108.287,21.4955 108.147,21.3745 108.147,21.1315 C108.147,21.0755 108.165,21.0105 108.203,20.9365 L114.056,10.8255 L108.147,1.2205 C108.109,1.1465 108.091,1.0905 108.091,1.0525 C108.091,0.9595 108.133,0.8755 108.217,0.8005 C108.301,0.7265 108.399,0.6895 108.512,0.6895 L113.019,0.6895 C113.168,0.6895 113.3,0.7445 113.411,0.8575 C113.523,0.9685 113.627,1.0905 113.72,1.2205 L117.192,6.8785 L120.328,1.2205 C120.403,1.0905 120.502,0.9685 120.622,0.8575 C120.744,0.7445 120.88,0.6895 121.028,0.6895 L125.174,0.6895 C125.285,0.6895 125.384,0.7265 125.468,0.8005 C125.552,0.8755 125.594,0.9595 125.594,1.0525 C125.594,1.0905 125.574,1.1465 125.537,1.2205 L119.769,11.1075 L125.789,20.9365 C125.846,21.0475 125.873,21.1425 125.873,21.2155" id="Fill-130" fill="#020302"></path>
                    <path d="M70.5557,20.1706 L70.5547,18.1706 L71.5467,18.1706 L71.5487,20.1696 L70.5557,20.1706 Z M70.5537,14.1696 L71.5467,14.1696 L71.5477,16.1696 L70.5547,16.1696 L70.5537,14.1696 Z M70.5527,10.1706 L71.5457,10.1686 L71.5457,12.1696 L70.5537,12.1696 L70.5527,10.1706 Z M70.5517,6.1706 L71.5447,6.1686 L71.5457,8.1686 L70.5527,8.1696 L70.5517,6.1706 Z M70.5507,2.1706 L71.5437,2.1686 L71.5447,4.1686 L70.5517,4.1686 L70.5507,2.1706 Z M47.0627,17.5846 L47.0597,3.9836 L67.5747,3.9706 L67.5767,17.5716 L47.0627,17.5846 Z M77.9987,16.0646 L76.2577,16.0656 L76.2547,6.2746 L77.9967,6.2746 L77.9967,5.0506 C77.9957,2.8076 76.4517,0.5656 74.5627,0.5666 L44.7017,0.5846 C42.8137,0.5856 41.2697,2.8286 41.2707,5.0726 L41.2707,6.2956 L43.0117,6.2956 L43.0137,16.0846 L41.2727,16.0866 L41.2727,17.3096 C41.2727,19.5526 42.8177,21.3866 44.7057,21.3846 L74.5677,21.3676 C76.4557,21.3666 77.9987,19.5306 77.9997,17.2866 L77.9987,16.0646 Z" id="Fill-131" fill="#EA6B25"></path>
                </g>
            </g>
            <polygon id="Fill-132" fill="#EA6B25" mask="url(#mask-2)" points="485.0303 291.1794 485.0233 302.3804 500.5833 302.3724 500.5813 291.1714"></polygon>
            <polygon id="Fill-133" fill="#EA6B25" mask="url(#mask-2)" points="483.9922 291.1804 482.0542 291.1814 482.0552 302.3824 483.9862 302.3814"></polygon>
        </g>
    </g>
</svg>