<?xml version="1.0" encoding="UTF-8" standalone="no"?>
<svg width="127px" height="23px" viewBox="0 0 127 23" version="1.1" xmlns="http://www.w3.org/2000/svg" xmlns:xlink="http://www.w3.org/1999/xlink">
    <!-- Generator: Sketch 39.1 (31720) - http://www.bohemiancoding.com/sketch -->
    <title>Group 5</title>
    <desc>Created with Sketch.</desc>
    <defs></defs>
    <g id="Page-1" stroke="none" stroke-width="1" fill="none" fill-rule="evenodd">
        <g id="Artboard-2" transform="translate(-172.000000, -262.000000)">
            <g id="Group-5" transform="translate(172.000000, 262.000000)">
                <path d="M14.6372,4.9441 L14.5602,4.9441 C13.2492,4.8901 11.2042,4.7261 8.8822,4.7261 C6.6752,4.7261 5.3132,5.7911 5.3132,9.3651 L5.3132,12.7751 C5.3132,16.5391 7.0302,17.4121 8.3642,17.4121 C9.1302,17.4121 9.8102,17.3851 10.4672,17.3291 L10.4672,11.0541 C10.4672,10.7551 10.6832,10.5091 10.9842,10.5091 L14.4762,10.5091 C14.7772,10.5091 15.0212,10.7551 15.0212,11.0541 L15.0212,20.2211 C15.0212,20.6031 14.8852,20.7681 14.4762,20.8491 C13.0032,21.1501 11.0942,21.4211 8.3642,21.4211 C5.2592,21.4211 0.5912,19.6501 0.5912,12.7471 L0.5912,9.3651 C0.5912,2.4071 4.9302,0.6621 8.8822,0.6621 C11.6132,0.6621 13.5752,1.0731 14.5872,1.2891 C14.8602,1.3451 15.0482,1.4531 15.0482,1.6981 L15.0482,4.5911 C15.0482,4.8901 14.8852,4.9441 14.6372,4.9441" id="Fill-93" fill="#221E1F"></path>
                <path d="M28.9761,9.4192 C28.9761,6.1462 27.8861,4.7532 25.5941,4.7532 C23.3041,4.7532 22.2391,6.1462 22.2391,9.4192 L22.2391,12.6662 C22.2391,15.9402 23.3041,17.3302 25.5941,17.3302 C27.8861,17.3302 28.9761,15.9402 28.9761,12.6662 L28.9761,9.4192 Z M25.5941,21.4212 C21.0931,21.4212 17.5231,18.9942 17.5231,12.6662 L17.5231,9.4192 C17.5231,3.0902 21.0931,0.6622 25.5941,0.6622 C30.0981,0.6622 33.6701,3.0902 33.6701,9.4192 L33.6701,12.6662 C33.6701,18.9942 30.0981,21.4212 25.5941,21.4212 L25.5941,21.4212 Z" id="Fill-95" fill="#221E1F"></path>
                <path d="M85.3433,14.9021 C85.3433,13.5931 84.6333,12.4751 82.4483,12.4751 L79.3953,12.4751 L79.3953,17.5751 C79.8303,17.5751 81.2503,17.6031 81.6303,17.6031 C84.4413,17.6031 85.3433,16.7301 85.3433,15.2031 L85.3433,14.9021 Z M85.2333,6.6641 C85.2333,5.1631 84.2793,4.4831 81.4673,4.4831 C81.0333,4.4831 79.7753,4.4831 79.3953,4.5071 L79.3953,9.2291 L82.4483,9.2291 C84.6043,9.2291 85.2333,8.2461 85.2333,7.0731 L85.2333,6.6641 Z M81.2773,21.4211 C79.4773,21.4211 77.3483,21.2861 76.2843,21.0951 C75.1933,20.9051 74.7853,20.5511 74.7853,19.3221 L74.7853,2.7351 C74.7853,1.5071 75.1673,1.1261 76.2303,0.9621 C77.1583,0.8261 79.3693,0.6621 81.1153,0.6621 C86.2693,0.6621 89.7363,2.0271 89.7363,6.3661 L89.7363,6.8561 C89.7363,8.6291 88.8883,10.1561 87.4423,10.8661 C88.8883,11.5731 89.8703,13.0181 89.8703,14.9021 L89.8703,15.3121 C89.8703,20.1121 85.9953,21.4211 81.2773,21.4211 L81.2773,21.4211 Z" id="Fill-97" fill="#221E1F"></path>
                <path d="M103.5469,9.4192 C103.5469,6.1462 102.4559,4.7532 100.1649,4.7532 C97.8729,4.7532 96.8099,6.1462 96.8099,9.4192 L96.8099,12.6662 C96.8099,15.9402 97.8729,17.3302 100.1649,17.3302 C102.4559,17.3302 103.5469,15.9402 103.5469,12.6662 L103.5469,9.4192 Z M100.1649,21.4212 C95.6639,21.4212 92.0919,18.9942 92.0919,12.6662 L92.0919,9.4192 C92.0919,3.0902 95.6639,0.6622 100.1649,0.6622 C104.6649,0.6622 108.2389,3.0902 108.2389,9.4192 L108.2389,12.6662 C108.2389,18.9942 104.6649,21.4212 100.1649,21.4212 L100.1649,21.4212 Z" id="Fill-99" fill="#221E1F"></path>
                <path d="M125.9238,21.176 L121.5858,21.176 C121.2318,21.176 121.0658,21.068 120.8778,20.768 L117.3298,15.012 L114.1408,20.632 C113.9468,20.958 113.7588,21.176 113.4568,21.176 L109.4198,21.176 C109.1468,21.176 109.0118,21.012 109.0118,20.821 C109.0118,20.768 109.0368,20.686 109.0658,20.632 L114.7658,10.781 L109.0118,1.426 C108.9818,1.371 108.9578,1.317 108.9578,1.263 C108.9578,1.073 109.1468,0.908 109.3638,0.908 L113.7588,0.908 C114.0558,0.908 114.2758,1.181 114.4408,1.426 L117.8208,6.937 L120.8778,1.426 C121.0118,1.181 121.2608,0.908 121.5598,0.908 L125.5958,0.908 C125.8158,0.908 126.0028,1.073 126.0028,1.263 C126.0028,1.317 125.9808,1.371 125.9498,1.426 L120.3318,11.054 L126.1978,20.632 C126.2518,20.741 126.2798,20.821 126.2798,20.905 C126.2798,21.068 126.1398,21.176 125.9238,21.176" id="Fill-101" fill="#221E1F"></path>
                <g id="Group-6" transform="translate(37.000000, 0.000000)" fill="#A0642E">
                    <polygon id="Fill-103" points="21.719 14.923 33.635 14.923 33.635 12.205 21.719 12.205"></polygon>
                    <path d="M27.6782,17.4807 C26.3972,17.4807 25.3512,18.5247 25.3512,19.8077 L30.0052,19.8077 C30.0052,18.5247 28.9582,17.4807 27.6782,17.4807" id="Fill-105"></path>
                    <path d="M18.502,0.6623 L2.88,0.6623 C1.737,0.6623 0.817,1.5863 0.817,2.7243 L0.817,17.7463 C0.817,18.8843 1.737,19.8083 2.88,19.8083 L2.978,19.8083 L4.006,19.8083 L4.048,19.8083 C4.048,17.9123 5.584,16.3763 7.48,16.3763 C9.374,16.3763 10.912,17.9123 10.912,19.8083 L16.581,19.8083 L18.502,19.8083 C19.639,19.8083 20.561,18.8843 20.561,17.7463 L20.561,2.7243 C20.561,1.5863 19.639,0.6623 18.502,0.6623" id="Fill-106"></path>
                    <path d="M9.8096,19.8083 C9.8096,21.0923 8.7636,22.1333 7.4806,22.1333 C6.1946,22.1333 5.1536,21.0923 5.1536,19.8083 C5.1536,18.5233 6.1946,17.4813 7.4806,17.4813 C8.7636,17.4813 9.8096,18.5233 9.8096,19.8083" id="Fill-107"></path>
                    <path d="M30.0054,19.8083 C30.0054,21.0923 28.9624,22.1333 27.6784,22.1333 C26.3934,22.1333 25.3514,21.0923 25.3514,19.8083 C25.3514,18.5233 26.3934,17.4813 27.6784,17.4813 C28.9624,17.4813 30.0054,18.5233 30.0054,19.8083" id="Fill-108"></path>
                    <path d="M31.5737,12.0144 L24.6997,12.0144 L24.6997,7.4234 L26.8957,7.4234 C26.9397,7.4234 26.9927,7.4234 27.0357,7.4254 C27.4537,7.6804 28.6477,8.7354 29.1777,9.2014 C29.5937,9.5684 29.9567,9.8784 30.2767,10.1514 C30.8427,10.6404 31.4317,11.1434 31.5657,11.3464 C31.5677,11.3704 31.5737,11.4214 31.5737,11.5094 L31.5737,12.0144 Z M33.6347,11.5094 C33.6347,10.0774 32.9607,9.7854 30.5417,7.6534 C27.9447,5.3614 27.7927,5.3614 26.8957,5.3614 L23.2537,5.3614 C22.4077,5.3614 21.7187,6.0484 21.7187,6.8954 L21.7187,14.0764 L21.9047,14.0764 C21.7867,14.3344 21.7187,14.6224 21.7187,14.9234 L21.7187,17.7464 C21.7187,18.8844 22.6457,19.8084 23.7847,19.8084 L24.2307,19.8084 C24.2307,17.9124 25.7657,16.3764 27.6637,16.3764 C29.5587,16.3764 31.0937,17.9124 31.0937,19.8084 L31.5737,19.8084 C32.7117,19.8084 33.6347,18.8844 33.6347,17.7464 L33.6347,14.9234 C33.6347,14.6224 33.5687,14.3344 33.4487,14.0764 L33.6347,14.0764 L33.6347,11.5094 Z" id="Fill-109"></path>
                </g>
            </g>
        </g>
    </g>
</svg>