<?xml version="1.0" encoding="UTF-8" standalone="no"?>
<svg width="148px" height="26px" viewBox="0 0 148 26" version="1.1" xmlns="http://www.w3.org/2000/svg" xmlns:xlink="http://www.w3.org/1999/xlink">
    <!-- Generator: Sketch 3.6.1 (26313) - http://www.bohemiancoding.com/sketch -->
    <title>Go-ride_logo</title>
    <desc>Created with Sketch.</desc>
    <defs>
        <path id="path-1" d="M15.0964237,24.4488452 L15.0964237,0.468456801 L0.498279498,0.468456801 L0.498279498,24.4488452 L15.0964237,24.4488452 L15.0964237,24.4488452 Z"></path>
        <path id="path-3" d="M0.027739278,25.7545699 L32.3372143,25.7545699 L32.3372143,0.0388120968 L0.027739278,0.0388120968 L0.027739278,25.7545699 L0.027739278,25.7545699 Z"></path>
    </defs>
    <g id="GO-JEK-PAGE" stroke="none" stroke-width="1" fill="none" fill-rule="evenodd">
        <g id="GO-JEK" transform="translate(-605.000000, -73.000000)">
            <g id="Go-ride_logo" transform="translate(605.000000, 73.000000)">
                <path d="M16.7659713,5.69897363 C16.6802029,5.75124379 16.5638867,5.77679809 16.415848,5.77679809 L16.3195054,5.77679809 C15.5546387,5.73614352 14.5982616,5.6827118 13.4515491,5.61998761 C12.3036616,5.55726341 11.0500323,5.52473976 9.68948602,5.52473976 C9.05268459,5.52473976 8.47345376,5.60953358 7.95296846,5.77679809 C7.43130824,5.94638573 6.99071685,6.23445239 6.63001935,6.64448277 C6.26814695,7.05335159 5.99204301,7.60509218 5.80053262,8.29854298 C5.61019713,8.99199379 5.51385448,9.85387067 5.51385448,10.8818505 L5.51385448,14.8218591 C5.51385448,15.9148863 5.62547097,16.8069637 5.84870394,17.4992529 C6.07193692,18.1927037 6.35861505,18.7397981 6.70991326,19.1382129 C7.06003656,19.5389508 7.44775699,19.8107556 7.87307455,19.9582736 C8.29839211,20.1057916 8.70138638,20.1778083 9.08440717,20.1778083 C9.95501577,20.1778083 10.7739283,20.1476078 11.538795,20.0848836 L11.538795,12.8367545 C11.538795,12.6683285 11.5963656,12.5208105 11.7138566,12.3953621 C11.8301728,12.2687521 11.9735118,12.2060279 12.1438738,12.2060279 L16.2243376,12.2060279 C16.3935247,12.2060279 16.5427384,12.2687521 16.6708036,12.3953621 C16.7976939,12.5208105 16.8611391,12.6683285 16.8611391,12.8367545 L16.8611391,23.4243661 C16.8611391,23.8239424 16.6484803,24.0655467 16.2243376,24.149179 C15.3525541,24.3176051 14.3433061,24.4697693 13.1965935,24.6068333 C12.0487061,24.7427357 10.6775857,24.8112677 9.08440717,24.8112677 C8.4887276,24.8112677 7.84605161,24.747382 7.1552043,24.6219336 C6.4655319,24.4953236 5.78525878,24.286243 5.11555986,23.991207 C4.44703584,23.6973325 3.80318495,23.2977562 3.1875319,22.7936395 C2.57070394,22.2906844 2.02437061,21.6704118 1.54618208,20.9351449 C1.06799355,20.1998779 0.689672401,19.3229008 0.414743369,18.3042134 C0.138639427,17.2843645 0,16.1135129 0,14.790497 L0,10.8818505 C0,8.8665454 0.286678136,7.21132363 0.861209319,5.91966987 C1.43456559,4.62685454 2.18298351,3.60352094 3.10763799,2.84618438 C4.03229247,2.09000938 5.07326308,1.56614621 6.23172473,1.27111019 C7.38901147,0.977235726 8.54277348,0.830879274 9.68948602,0.830879274 C11.2838394,0.830879274 12.6432108,0.920319328 13.7699498,1.09803788 C14.895514,1.27691798 15.7567233,1.42908223 16.3524029,1.55453062 C16.7131004,1.61841637 16.8928616,1.77522685 16.8928616,2.02728519 L16.8928616,5.36792927 C16.8928616,5.53635535 16.8505649,5.64670347 16.7659713,5.69897363" id="Fill-1" fill="#221E1F"></path>
                <path d="M34.0419713,10.9367923 C34.0419713,9.01789656 33.717696,7.63447962 33.0703204,6.79118769 C32.4217698,5.94789575 31.4277956,5.52508823 30.0895727,5.52508823 C28.7513497,5.52508823 27.7632501,5.94789575 27.1252738,6.79118769 C26.4884723,7.63447962 26.1688967,9.01789656 26.1688967,10.9367923 L26.1688967,14.7037285 C26.1688967,16.6237858 26.4884723,18.0060412 27.1252738,18.8493331 C27.7632501,19.6937866 28.7513497,20.1154326 30.0895727,20.1154326 C31.4277956,20.1154326 32.4217698,19.6937866 33.0703204,18.8493331 C33.717696,18.0060412 34.0419713,16.6237858 34.0419713,14.7037285 L34.0419713,10.9367923 Z M39.4923806,14.6955976 C39.4923806,16.5238917 39.2479992,18.0780578 38.7604114,19.3592576 C38.2728236,20.6416189 37.6042996,21.6858605 36.7560143,22.4943057 C35.907729,23.3039124 34.91023,23.8928229 33.7646924,24.2598756 C32.6191548,24.6269283 31.3890236,24.8116162 30.0731239,24.8116162 C28.7583992,24.8116162 27.5270931,24.6269283 26.3827304,24.2598756 C25.2371928,23.8928229 24.2396938,23.3039124 23.3914085,22.4943057 C22.5431232,21.6858605 21.8745992,20.6416189 21.3870114,19.3592576 C20.8982487,18.0780578 20.6550422,16.5238917 20.6550422,14.6955976 L20.6550422,10.9449232 C20.6550422,9.11779065 20.8982487,7.56362452 21.3870114,6.28242478 C21.8745992,5.00006349 22.5431232,3.95582183 23.3914085,3.14621511 C24.2396938,2.33776995 25.2371928,1.74885946 26.3827304,1.38180677 C27.5270931,1.01475409 28.7583992,0.830066183 30.0731239,0.830066183 C31.3890236,0.830066183 32.6191548,1.01475409 33.7646924,1.38180677 C34.91023,1.74885946 35.907729,2.33776995 36.7560143,3.14621511 C37.6042996,3.95582183 38.2728236,5.00006349 38.7604114,6.28242478 C39.2479992,7.56362452 39.4923806,9.11779065 39.4923806,10.9449232 L39.4923806,14.6955976 Z" id="Fill-3" fill="#221E1F"></path>
                <path d="M92.1140323,8.2036436 C92.1140323,7.2372264 91.7545097,6.52867532 91.0354646,6.07682882 C90.3164194,5.62498231 89.2907227,5.39963984 87.9583743,5.39963984 C87.8526323,5.39963984 87.6775707,5.40428608 87.4355391,5.41474011 C87.1923327,5.4263557 86.9432517,5.43680973 86.689471,5.44726376 C86.4356904,5.45655624 86.1924839,5.46701027 85.9598517,5.4774643 C85.7272194,5.48907989 85.5686065,5.49372613 85.484013,5.49372613 L85.484013,11.5442877 C85.5686065,11.5442877 85.7166452,11.5500955 85.9281291,11.5605495 C86.139613,11.569842 86.3663707,11.580296 86.6095771,11.5907501 C86.8539585,11.6023656 87.0807162,11.6070119 87.2922001,11.6070119 L87.7363162,11.6070119 C88.5611033,11.6070119 89.2531255,11.5500955 89.8135578,11.4339396 C90.37399,11.3189452 90.8228058,11.1458729 91.1623549,10.9135611 C91.5007291,10.6824108 91.7439356,10.3780823 91.8919743,9.99941403 C92.040013,9.62190731 92.1140323,9.16076833 92.1140323,8.61367398 L92.1140323,8.2036436 Z M98.3610309,24.1483659 C98.3610309,24.4004242 98.202418,24.5270342 97.8840173,24.5270342 L92.9787664,24.5270342 C92.8072295,24.5270342 92.6791642,24.46431 92.5933958,24.3377001 C92.5076273,24.2122517 92.4230338,24.0658952 92.3372653,23.8963076 L88.0852646,15.9245272 L87.7363162,15.9558893 C87.397942,15.9558893 87.0125714,15.9454353 86.5790295,15.9245272 C86.1443126,15.9036191 85.7800904,15.8931651 85.484013,15.8931651 L85.484013,23.8963076 C85.484013,24.0658952 85.4193929,24.2122517 85.2913277,24.3377001 C85.1620875,24.46431 85.0128739,24.5270342 84.8425119,24.5270342 L80.6751047,24.5270342 C80.5035678,24.5270342 80.3543542,24.46431 80.2251141,24.3377001 C80.0970488,24.2122517 80.0336037,24.0658952 80.0336037,23.8963076 L80.0336037,2.751285 C80.0336037,2.20651376 80.1510947,1.83829952 80.3849019,1.64896538 C80.618709,1.45963124 80.9805814,1.32372882 81.4705191,1.24009656 C81.8323915,1.17737237 82.2682832,1.12394065 82.7793692,1.08212452 C83.2904553,1.04030839 83.8332639,0.998492258 84.4077951,0.95551457 C84.9835011,0.91486 85.5733062,0.882336344 86.1807348,0.86142828 C86.7869886,0.840520215 87.3779685,0.830066183 87.9524997,0.830066183 C89.3153958,0.830066183 90.5819492,0.952029892 91.7521599,1.19247263 C92.9235456,1.43407694 93.9398431,1.84294575 94.8022273,2.4214022 C95.6646115,2.99985866 96.340185,3.76067989 96.8301227,4.70618903 C97.3200603,5.65169817 97.5644416,6.81674199 97.5644416,8.2036436 L97.5644416,8.61367398 C97.5644416,10.2944501 97.1684968,11.6499896 96.3777822,12.6779694 C95.5870675,13.7082724 94.6036675,14.4539933 93.4275822,14.9151323 L98.2658632,23.8022213 C98.3293083,23.9288312 98.3610309,24.0438256 98.3610309,24.1483659 L98.3610309,24.1483659 Z" id="Fill-5" fill="#221E1F"></path>
                <path d="M106.983346,24.3378162 C106.865855,24.4644262 106.722516,24.5271503 106.553329,24.5271503 L102.282529,24.5271503 C102.110992,24.5271503 101.973528,24.4644262 101.867786,24.3378162 C101.760869,24.2123678 101.707998,24.0648498 101.707998,23.8964237 L101.707998,1.71296728 C101.707998,1.31339094 101.899509,1.11244121 102.282529,1.11244121 L106.553329,1.11244121 C106.956323,1.11244121 107.158407,1.31339094 107.158407,1.71296728 L107.158407,23.8964237 C107.158407,24.0648498 107.099662,24.2123678 106.983346,24.3378162" id="Fill-7" fill="#221E1F"></path>
                <path d="M124.051739,10.7876481 C124.051739,9.71669054 123.940123,8.83390559 123.71689,8.14045478 C123.493657,7.44816554 123.175256,6.89642495 122.760513,6.48639457 C122.346944,6.07636419 121.852307,5.79410532 121.277776,5.63613328 C120.705594,5.47816124 120.055869,5.39917522 119.334474,5.39917522 C118.930305,5.39917522 118.510862,5.40498301 118.07497,5.41543704 C117.639078,5.42589108 117.304229,5.4421529 117.071596,5.46189941 L117.071596,20.1776922 C117.304229,20.1997618 117.639078,20.214862 118.07497,20.2253161 C118.510862,20.2369317 118.930305,20.2415779 119.334474,20.2415779 C120.055869,20.2415779 120.705594,20.1625919 121.277776,20.0057814 C121.852307,19.8478094 122.346944,19.5643889 122.760513,19.1543585 C123.175256,18.7454897 123.493657,18.1925876 123.71689,17.4991368 C123.940123,16.8068475 124.051739,15.9252241 124.051739,14.8531051 L124.051739,10.7876481 Z M129.502148,14.8531051 C129.502148,16.5129731 129.268341,17.9672451 128.800727,19.2170827 C128.333113,20.4669204 127.663414,21.5076774 126.792805,22.3370306 C125.921022,23.1675454 124.858903,23.7866564 123.605273,24.1966868 C122.351644,24.6067172 120.927652,24.8111516 119.334474,24.8111516 C118.675349,24.8111516 118.011525,24.7948897 117.341826,24.7635276 C116.672127,24.7321655 116.035325,24.6949956 115.430247,24.6543411 C114.823993,24.6102018 114.271785,24.5637395 113.772448,24.5114693 C113.271936,24.4591991 112.863067,24.4011212 112.544667,24.338397 C112.247414,24.2965809 112.019482,24.1920405 111.859694,24.0236145 C111.699906,23.8551884 111.621187,23.592676 111.621187,23.2349158 L111.621187,2.40467575 C111.621187,2.0480771 111.699906,1.78556473 111.859694,1.61830022 C112.019482,1.44987414 112.247414,1.34417226 112.544667,1.30235613 C112.863067,1.23963194 113.271936,1.18155398 113.772448,1.12928382 C114.271785,1.07701366 114.823993,1.02938973 115.430247,0.987573602 C116.035325,0.945757473 116.672127,0.908587581 117.341826,0.877225484 C118.011525,0.845863387 118.675349,0.830763118 119.334474,0.830763118 C120.927652,0.830763118 122.351644,1.03519753 123.605273,1.44406634 C124.858903,1.85409672 125.921022,2.4743693 126.792805,3.30372253 C127.663414,4.13423731 128.333113,5.17383274 128.800727,6.42250882 C129.268341,7.67350801 129.502148,9.12894161 129.502148,10.7876481 L129.502148,14.8531051 Z" id="Fill-9" fill="#221E1F"></path>
                <g id="Group-13" transform="translate(132.764875, 0.361958)">
                    <mask id="mask-2" fill="white">
                        <use xlink:href="#path-1"></use>
                    </mask>
                    <g id="Clip-12"></g>
                    <path d="M14.4597397,24.0388149 C13.9063569,24.1236087 13.1685132,24.2130487 12.2450336,24.307135 C11.3203791,24.4023829 9.99743004,24.4488452 8.27618631,24.4488452 C7.25636409,24.4488452 6.27648882,24.365213 5.33773541,24.1967869 C4.3978071,24.0283608 3.57067018,23.7031243 2.85514975,23.2199157 C2.13845441,22.7367071 1.56744796,22.0490641 1.13978057,21.1558251 C0.71211319,20.2637477 0.498279498,19.1021885 0.498279498,17.6734708 L0.498279498,7.21246917 C0.498279498,5.78375142 0.71211319,4.62800008 1.13978057,3.74521513 C1.56744796,2.86243019 2.13845441,2.18059497 2.85514975,1.69738637 C3.57067018,1.21417777 4.40368165,0.88894121 5.35300925,0.720515134 C6.30233685,0.552089059 7.28808667,0.468456801 8.30790889,0.468456801 C9.1573691,0.468456801 9.90696194,0.48355707 10.5543376,0.516080726 C11.2028881,0.546281263 11.7715447,0.583451156 12.2603075,0.625267285 C12.7490702,0.668244973 13.1685132,0.710061102 13.5198114,0.750715672 C13.8699347,0.794854919 14.1836358,0.835509489 14.4597397,0.877325618 C14.8850573,0.940049812 15.0965411,1.15145358 15.0965411,1.50805223 L15.0965411,4.43866594 C15.0965411,4.60709202 15.033096,4.75344847 14.9062057,4.88005841 C14.7781404,5.0055068 14.6289268,5.06823099 14.4597397,5.06823099 L7.98950817,5.06823099 C7.24461498,5.06823099 6.71943004,5.2215568 6.41160351,5.5258853 C6.10260208,5.83021379 5.94868882,6.39240841 5.94868882,7.21246917 L5.94868882,10.0791971 L14.2047842,10.0791971 C14.3739713,10.0791971 14.5231849,10.1430829 14.6512501,10.2685313 C14.7781404,10.3951412 14.8415856,10.5414977 14.8415856,10.7099237 L14.8415856,13.7032616 C14.8415856,13.8716877 14.7781404,14.0192057 14.6512501,14.1446541 C14.5231849,14.2712641 14.3739713,14.3339883 14.2047842,14.3339883 L5.94868882,14.3339883 L5.94868882,17.6734708 C5.94868882,18.4935315 6.10260208,19.0545646 6.41160351,19.3588931 C6.71943004,19.6655447 7.24461498,19.8165474 7.98950817,19.8165474 L14.4597397,19.8165474 C14.6289268,19.8165474 14.7781404,19.8804331 14.9062057,20.0058815 C15.033096,20.1324915 15.0965411,20.2788479 15.0965411,20.447274 L15.0965411,23.3778877 C15.0965411,23.7553944 14.8850573,23.9760907 14.4597397,24.0388149" id="Fill-11" fill="#221E1F" mask="url(#mask-2)"></path>
                </g>
                <g id="Group-16" transform="translate(43.471685, 0.161689)">
                    <mask id="mask-4" fill="white">
                        <use xlink:href="#path-3"></use>
                    </mask>
                    <g id="Clip-15"></g>
                    <path d="M27.0275212,23.9878384 C25.0912689,23.9065293 23.5897334,22.2861543 23.6719771,20.3719048 C23.7154488,19.3915489 24.1689642,18.5250258 24.8586366,17.9233382 L25.6611004,19.3032704 C25.3380001,19.6168914 25.128866,20.0455067 25.1077176,20.5275538 C25.0642459,21.5381102 25.8573105,22.3918562 26.8806574,22.4359954 C27.9004796,22.4801347 28.7652137,21.6960823 28.8098603,20.6866874 C28.853332,19.6761309 28.0602675,18.8212234 27.0380954,18.7782457 C26.9617262,18.774761 26.8853571,18.7782457 26.8113377,18.7828919 C26.624527,18.4332626 26.3296244,17.8803605 26.0018244,17.2542801 C26.414218,17.1090852 26.8642087,17.0347454 27.3306481,17.0556535 C29.2669004,17.1369626 30.7696108,18.7584992 30.6850173,20.6715871 C30.6004237,22.5858366 28.9625986,24.0726323 27.0275212,23.9878384 L27.0275212,23.9878384 Z M21.1940911,10.4835519 C17.9936352,10.2384629 15.216147,11.5707712 15.216147,11.5707712 C15.216147,11.5707712 15.1221542,11.6973812 15.0258115,11.5649634 C14.468904,10.7785879 14.4054589,10.1931621 14.4054589,10.1931621 L15.7378072,7.13013065 C16.7682037,8.41249194 21.2246388,9.78429328 21.2246388,9.78429328 L21.1940911,10.4835519 Z M6.63342659,23.7357801 C4.76414416,23.654471 3.30373054,22.1397978 3.28375706,20.3138269 L4.7688438,20.3765511 C4.72067247,21.4719013 5.58070688,22.397664 6.68864738,22.4464495 C7.79893771,22.4929118 8.73534129,21.6438121 8.78233771,20.5461387 L10.2662495,20.611186 C10.0876632,22.4301876 8.50270903,23.8147661 6.63342659,23.7357801 L6.63342659,23.7357801 Z M6.93655348,16.8140492 C7.10104093,16.8210185 7.26082875,16.8430882 7.42061656,16.8732887 L6.92362946,18.4832097 C6.90130616,18.4820481 6.88368251,18.4808866 6.86370903,18.4774019 C6.0236481,18.4425551 5.28110473,18.9211175 4.95095491,19.6308301 L3.36012624,19.5622981 C3.70437498,17.9314691 5.19768609,16.7385478 6.93655348,16.8140492 L6.93655348,16.8140492 Z M8.67189613,17.359982 C9.53428036,17.9093995 10.1346596,18.8154156 10.260375,19.8584957 L8.66602158,19.7899637 C8.53560652,19.4298804 8.30414918,19.1185825 8.00102229,18.8885938 L8.67189613,17.359982 Z M11.663218,7.24744812 C11.3518667,7.85726667 11.0416904,8.46708522 10.7749857,8.99094839 C10.6222474,8.52864785 10.4072388,7.80499651 10.2157284,6.89317258 L11.663218,7.24744812 Z M27.3517965,15.4585097 C26.610428,15.4271476 25.8972574,15.5514344 25.2451822,15.8011696 C24.5719585,14.4862847 23.9939026,13.2910403 24.1172682,13.2980097 C24.3898474,13.3096253 25.4742897,13.3549261 25.4742897,13.3549261 C25.4742897,13.3549261 25.6564008,11.6962196 25.5870811,10.7797495 C25.5189363,9.86095618 25.1934861,9.84585591 25.1934861,9.84585591 L23.9786287,10.2233626 C22.5440632,10.701925 22.3314044,10.5846075 22.3314044,10.5846075 C22.3314044,10.5846075 22.3478531,9.16866694 22.0764488,9.15588978 C21.8038696,9.14427419 20.4773958,8.81322984 20.4773958,8.81322984 C20.3657793,8.5983414 19.4740223,8.13255618 19.0087578,7.78873468 C18.4882725,7.20447043 16.6730359,5.90700887 15.3630108,5.0021543 C15.5368976,5.05093978 15.7201836,5.08230188 15.9093442,5.08927124 C17.2123198,5.14618763 18.3155606,4.14608522 18.3731313,2.85559301 C18.428352,1.56510081 17.4167542,0.475558333 16.1126037,0.418641935 C14.8061033,0.361725538 13.7040373,1.36415108 13.6476416,2.65348172 C13.6229685,3.21103011 13.8015549,3.73257016 14.1129062,4.14956989 C13.9977649,4.07290699 13.9331449,4.0299293 13.9331449,4.0299293 C13.6206187,3.74767043 13.2575714,4.11936935 13.2575714,4.11936935 C13.2575714,4.11936935 12.8980488,4.82443575 12.4186854,5.76297554 L9.90790186,4.9766 C9.9008524,4.91503737 9.89380294,4.85347473 9.88675348,4.78958898 C11.0134925,4.58399301 11.8688273,3.60944489 11.8688273,2.4351086 C11.8688273,1.11209274 10.7832101,0.0388120968 9.44498717,0.0388120968 C8.10558932,0.0388120968 7.02114703,1.11209274 7.02114703,2.4351086 C7.02114703,3.15992151 7.3465972,3.80690995 7.86003305,4.2459793 C7.4817119,4.73383414 6.50066172,6.53308925 6.9729757,11.6695038 L6.45249039,11.6811194 C5.74401943,11.7043505 5.20708538,14.0483769 5.20708538,14.0483769 C2.46601943,14.5246161 0.850517634,17.8431906 0.850517634,17.8431906 L1.5366653,18.3565997 L1.48731907,19.4821505 L0.238389319,19.4298804 C-0.216301004,19.8921809 0.206666738,20.1814091 0.206666738,20.1814091 L1.45324667,20.2348409 L1.45324667,20.2569105 L1.44502229,20.4508909 L1.44972194,20.4508909 C1.4461972,23.2607024 3.68557642,25.5965978 6.55118287,25.7197231 C9.42031405,25.8405253 11.8559033,23.7009333 12.095585,20.8980911 C12.672466,20.8922833 15.2983908,20.8736984 16.9843872,20.8980911 C18.887742,20.9259685 19.3706302,19.8166796 19.3706302,19.8166796 L19.5421671,15.8987406 C19.5421671,15.8987406 20.737051,15.9498492 21.2939585,15.7035987 C21.8449915,15.4585097 22.6674287,14.1505941 22.6674287,14.1505941 L24.0162259,16.4748739 C22.8037184,17.3669513 21.9930302,18.7724379 21.9213606,20.3811973 C21.7968201,23.2235325 24.027975,25.6267984 26.9018058,25.7499237 C29.7768115,25.8730489 32.2088761,23.6684097 32.3322416,20.8260745 C32.4567822,17.9837392 30.2268022,15.5804734 27.3517965,15.4585097 L27.3517965,15.4585097 Z" id="Fill-14" fill="#F9AE3B" mask="url(#mask-4)"></path>
                </g>
            </g>
        </g>
    </g>
</svg>