<?xml version="1.0" encoding="UTF-8" standalone="no"?>
<svg width="126px" height="20px" viewBox="0 0 126 20" version="1.1" xmlns="http://www.w3.org/2000/svg" xmlns:xlink="http://www.w3.org/1999/xlink">
    <!-- Generator: Sketch 39.1 (31720) - http://www.bohemiancoding.com/sketch -->
    <title>Group 3</title>
    <desc>Created with Sketch.</desc>
    <defs></defs>
    <g id="Page-1" stroke="none" stroke-width="1" fill="none" fill-rule="evenodd">
        <g id="Artboard-2" transform="translate(-385.000000, -181.000000)">
            <g id="Group-3" transform="translate(385.000000, 181.000000)">
                <path d="M13.0459,4.5779 C12.9809,4.6179 12.8919,4.6389 12.7789,4.6389 L12.7059,4.6389 C12.1229,4.6069 11.3969,4.5659 10.5239,4.5169 C9.6499,4.4689 8.6959,4.4449 7.6609,4.4449 C7.1759,4.4449 6.7349,4.5089 6.3379,4.6389 C5.9429,4.7679 5.6089,4.9909 5.3329,5.3059 C5.0589,5.6209 4.8499,6.0459 4.7019,6.5789 C4.5579,7.1119 4.4839,7.7759 4.4839,8.5669 L4.4839,11.5989 C4.4839,12.4399 4.5689,13.1279 4.7379,13.6609 C4.9079,14.1949 5.1269,14.6159 5.3949,14.9219 C5.6599,15.2299 5.9549,15.4399 6.2789,15.5529 C6.6029,15.6659 6.9099,15.7229 7.1999,15.7229 C7.8629,15.7229 8.4859,15.6979 9.0679,15.6499 L9.0679,10.0709 C9.0679,9.9429 9.1119,9.8289 9.2019,9.7319 C9.2899,9.6359 9.3999,9.5869 9.5289,9.5869 L12.6329,9.5869 C12.7639,9.5869 12.8769,9.6359 12.9739,9.7319 C13.0699,9.8289 13.1179,9.9429 13.1179,10.0709 L13.1179,18.2199 C13.1179,18.5279 12.9559,18.7139 12.6329,18.7789 C11.9719,18.9079 11.2029,19.0259 10.3299,19.1309 C9.4569,19.2349 8.4139,19.2879 7.1999,19.2879 C6.7479,19.2879 6.2579,19.2399 5.7339,19.1419 C5.2079,19.0459 4.6909,18.8839 4.1809,18.6579 C3.6709,18.4319 3.1819,18.1249 2.7129,17.7359 C2.2439,17.3489 1.8279,16.8709 1.4639,16.3049 C1.1009,15.7389 0.8149,15.0639 0.6039,14.2789 C0.3929,13.4969 0.2879,12.5939 0.2879,11.5759 L0.2879,8.5669 C0.2879,7.0159 0.5059,5.7419 0.9429,4.7469 C1.3789,3.7529 1.9489,2.9639 2.6529,2.3829 C3.3569,1.8009 4.1489,1.3959 5.0299,1.1699 C5.9109,0.9439 6.7879,0.8309 7.6609,0.8309 C8.8739,0.8309 9.9079,0.8979 10.7659,1.0359 C11.6219,1.1729 12.2779,1.2909 12.7319,1.3879 C13.0049,1.4369 13.1429,1.5589 13.1429,1.7519 L13.1429,4.3229 C13.1429,4.4519 13.1109,4.5379 13.0459,4.5779 L13.0459,4.5779 Z" id="Fill-1" fill="#211E1E"></path>
                <path d="M26.1924,8.6096 C26.1924,7.1316 25.9454,6.0686 25.4524,5.4186 C24.9584,4.7686 24.2034,4.4446 23.1834,4.4446 C22.1664,4.4446 21.4144,4.7686 20.9274,5.4186 C20.4434,6.0686 20.2014,7.1316 20.2014,8.6096 L20.2014,11.5086 C20.2014,12.9856 20.4434,14.0496 20.9274,14.6996 C21.4144,15.3486 22.1664,15.6736 23.1834,15.6736 C24.2034,15.6736 24.9584,15.3486 25.4524,14.6996 C25.9454,14.0496 26.1924,12.9856 26.1924,11.5086 L26.1924,8.6096 Z M30.3384,11.5026 C30.3384,12.9096 30.1544,14.1056 29.7824,15.0926 C29.4104,16.0776 28.9024,16.8836 28.2554,17.5046 C27.6114,18.1276 26.8524,18.5806 25.9814,18.8636 C25.1084,19.1456 24.1714,19.2886 23.1714,19.2886 C22.1714,19.2886 21.2354,19.1456 20.3634,18.8636 C19.4914,18.5806 18.7334,18.1276 18.0884,17.5046 C17.4404,16.8836 16.9334,16.0776 16.5624,15.0926 C16.1904,14.1056 16.0044,12.9096 16.0044,11.5026 L16.0044,8.6166 C16.0044,7.2096 16.1904,6.0126 16.5624,5.0266 C16.9334,4.0406 17.4404,3.2356 18.0884,2.6126 C18.7334,1.9906 19.4914,1.5386 20.3634,1.2536 C21.2354,0.9726 22.1714,0.8306 23.1714,0.8306 C24.1714,0.8306 25.1084,0.9726 25.9814,1.2536 C26.8524,1.5386 27.6114,1.9906 28.2554,2.6126 C28.9024,3.2356 29.4104,4.0406 29.7824,5.0266 C30.1544,6.0126 30.3384,7.2096 30.3384,8.6166 L30.3384,11.5026 Z" id="Fill-3" fill="#211E1E"></path>
                <path d="M78.1826,18.9626 C78.0926,19.0116 77.9996,19.0356 77.9036,19.0356 L74.6786,19.0356 C74.5666,19.0356 74.4716,18.9866 74.3996,18.8896 C74.3256,18.7916 74.2886,18.6776 74.2886,18.5476 L74.2886,8.3676 C74.2886,8.2376 74.2496,8.1716 74.1666,8.1716 C74.1016,8.1716 74.0366,8.2296 73.9716,8.3436 L71.7746,12.3726 C71.6126,12.6486 71.3686,12.7866 71.0416,12.7866 L69.0886,12.7866 C68.7636,12.7866 68.5196,12.6486 68.3556,12.3726 L66.1596,8.3436 C66.0946,8.2296 66.0306,8.1716 65.9636,8.1716 C65.8826,8.1716 65.8416,8.2376 65.8416,8.3676 L65.8416,18.5476 C65.8416,18.6776 65.8046,18.7916 65.7336,18.8896 C65.6596,18.9866 65.5666,19.0356 65.4526,19.0356 L62.2286,19.0356 C62.1316,19.0356 62.0376,19.0116 61.9496,18.9626 C61.8596,18.9136 61.8146,18.8246 61.8146,18.6936 L61.8146,1.7276 C61.8146,1.4676 61.8946,1.2646 62.0586,1.1166 C62.2206,0.9706 62.4326,0.8976 62.6936,0.8976 L64.9886,0.8976 C65.4756,0.8976 65.8336,1.1166 66.0616,1.5566 L69.7976,8.5136 C69.8956,8.7256 69.9836,8.8316 70.0666,8.8316 C70.1296,8.8316 70.2186,8.7256 70.3336,8.5136 L74.0696,1.5566 C74.2966,1.1166 74.6566,0.8976 75.1426,0.8976 L77.4376,0.8976 C77.6986,0.8976 77.9106,0.9746 78.0746,1.1286 C78.2356,1.2836 78.3176,1.4916 78.3176,1.7526 L78.3176,18.6936 C78.3176,18.8246 78.2716,18.9136 78.1826,18.9626" id="Fill-5" fill="#211E1E"></path>
                <path d="M88.5215,4.5105 C88.4885,4.3805 88.4555,4.2865 88.4225,4.2285 C88.3905,4.1735 88.3175,4.1445 88.2035,4.1445 C88.0245,4.1445 87.9115,4.2665 87.8635,4.5105 L86.3735,11.2475 L90.0095,11.2475 L88.5215,4.5105 Z M95.8945,18.6445 C95.8945,18.9055 95.7555,19.0355 95.4785,19.0355 L92.0605,19.0355 C91.9305,19.0355 91.8245,18.9945 91.7445,18.9145 C91.6625,18.8325 91.6045,18.7275 91.5735,18.5965 L90.6945,14.5925 L85.6895,14.5925 L84.8105,18.5965 C84.7775,18.7275 84.7205,18.8325 84.6395,18.9145 C84.5585,18.9945 84.4525,19.0355 84.3235,19.0355 L80.9055,19.0355 C80.6275,19.0355 80.4895,18.9055 80.4895,18.6445 C80.4895,18.6295 80.4935,18.6125 80.5015,18.5965 C80.5095,18.5805 80.5135,18.5555 80.5135,18.5225 L84.1515,3.3865 C84.2965,2.8015 84.5085,2.3295 84.7875,1.9705 C85.0625,1.6135 85.3835,1.3405 85.7505,1.1535 C86.1175,0.9665 86.5105,0.8405 86.9355,0.7765 C87.3585,0.7105 87.7815,0.6775 88.2035,0.6775 C88.6265,0.6775 89.0465,0.7105 89.4595,0.7765 C89.8755,0.8405 90.2655,0.9665 90.6325,1.1535 C91.0005,1.3405 91.3205,1.6135 91.5955,1.9705 C91.8735,2.3295 92.0845,2.8015 92.2325,3.3865 L95.8695,18.5225 C95.8695,18.5555 95.8725,18.5805 95.8805,18.5965 C95.8885,18.6125 95.8945,18.6295 95.8945,18.6445 L95.8945,18.6445 Z" id="Fill-7" fill="#211E1E"></path>
                <path d="M107.3193,6.3899 C107.3193,5.6419 107.0433,5.0919 106.4923,4.7429 C105.9403,4.3929 105.1563,4.2169 104.1353,4.2169 C104.0543,4.2169 103.9213,4.2219 103.7343,4.2299 C103.5483,4.2389 103.3593,4.2459 103.1653,4.2539 C102.9683,4.2629 102.7833,4.2709 102.6043,4.2789 C102.4263,4.2869 102.3053,4.2909 102.2403,4.2909 L102.2403,8.9779 C102.3053,8.9779 102.4193,8.9819 102.5813,8.9899 C102.7433,8.9989 102.9173,9.0069 103.1033,9.0149 C103.2893,9.0229 103.4643,9.0269 103.6253,9.0269 L103.9653,9.0269 C104.5973,9.0269 105.1283,8.9819 105.5573,8.8919 C105.9873,8.8029 106.3313,8.6679 106.5903,8.4899 C106.8473,8.3109 107.0363,8.0749 107.1483,7.7809 C107.2613,7.4889 107.3193,7.1299 107.3193,6.7079 L107.3193,6.3899 Z M112.1033,18.7429 C112.1033,18.9379 111.9803,19.0359 111.7373,19.0359 L107.9803,19.0359 C107.8493,19.0359 107.7523,18.9869 107.6853,18.8889 C107.6213,18.7919 107.5543,18.6789 107.4893,18.5479 L104.2343,12.3709 L103.9663,12.3959 C103.7063,12.3959 103.4113,12.3879 103.0803,12.3709 C102.7483,12.3549 102.4673,12.3469 102.2403,12.3469 L102.2403,18.5479 C102.2403,18.6789 102.1913,18.7919 102.0923,18.8889 C101.9943,18.9869 101.8813,19.0359 101.7513,19.0359 L98.5563,19.0359 C98.4263,19.0359 98.3103,18.9869 98.2133,18.8889 C98.1153,18.7919 98.0653,18.6789 98.0653,18.5479 L98.0653,2.1659 C98.0653,1.7439 98.1573,1.4589 98.3363,1.3129 C98.5133,1.1669 98.7923,1.0609 99.1673,0.9949 C99.4433,0.9459 99.7773,0.9059 100.1703,0.8729 C100.5603,0.8399 100.9763,0.8079 101.4173,0.7749 C101.8563,0.7429 102.3083,0.7179 102.7733,0.7009 C103.2393,0.6859 103.6913,0.6779 104.1313,0.6779 C105.1733,0.6779 106.1443,0.7719 107.0423,0.9589 C107.9373,1.1459 108.7163,1.4629 109.3783,1.9109 C110.0383,2.3579 110.5553,2.9479 110.9313,3.6809 C111.3053,4.4129 111.4943,5.3159 111.4943,6.3899 L111.4943,6.7079 C111.4943,8.0089 111.1893,9.0599 110.5833,9.8569 C109.9783,10.6549 109.2253,11.2319 108.3253,11.5899 L112.0313,18.4739 C112.0793,18.5719 112.1033,18.6619 112.1033,18.7429 L112.1033,18.7429 Z" id="Fill-9" fill="#211E1E"></path>
                <path d="M125.7383,4.2053 C125.6323,4.2943 125.5133,4.3393 125.3843,4.3393 L121.4273,4.3393 L121.4273,18.5473 C121.4273,18.6783 121.3803,18.7913 121.2833,18.8883 C121.1843,18.9873 121.0713,19.0363 120.9413,19.0363 L117.7433,19.0363 C117.6133,19.0363 117.4983,18.9873 117.4013,18.8883 C117.3033,18.7913 117.2543,18.6783 117.2543,18.5473 L117.2543,4.3393 L113.2753,4.3393 C113.1433,4.3393 113.0323,4.2943 112.9323,4.2053 C112.8353,4.1153 112.7873,4.0053 112.7873,3.8763 L112.7873,1.3613 C112.7873,1.2303 112.8353,1.1213 112.9323,1.0323 C113.0323,0.9413 113.1433,0.8973 113.2753,0.8973 L125.3843,0.8973 C125.5133,0.8973 125.6323,0.9413 125.7383,1.0323 C125.8423,1.1213 125.8953,1.2303 125.8953,1.3613 L125.8953,3.8763 C125.8953,4.0053 125.8423,4.1153 125.7383,4.2053" id="Fill-11" fill="#211E1E"></path>
                <path d="M54.1475,2.676 L42.7205,2.676 C42.7355,2.725 42.7425,2.764 42.7525,2.802 C43.4955,5.025 44.2375,7.247 44.9715,9.473 C45.0135,9.606 45.0745,9.638 45.2065,9.638 C48.1225,9.635 51.0375,9.636 53.9545,9.636 L54.1475,9.636 L54.1475,2.676 Z M40.7835,0.795 L55.7055,0.795 C55.8655,0.926 55.9515,1.096 55.9515,1.307 C55.9515,4.518 55.9535,7.728 55.9455,10.94 C55.9445,11.058 55.8715,11.203 55.7845,11.29 C55.6335,11.44 55.4445,11.524 55.2115,11.507 C55.0065,11.492 54.8005,11.504 54.5935,11.504 C51.1005,11.506 47.6075,11.506 44.1135,11.507 C43.7175,11.507 43.6655,11.471 43.5325,11.09 C43.4745,10.932 43.4365,10.767 43.3825,10.608 C42.3765,7.66 41.3655,4.711 40.3585,1.762 C40.2855,1.552 40.2975,1.342 40.4415,1.164 C40.5435,1.032 40.6685,0.917 40.7835,0.795 L40.7835,0.795 Z" id="Fill-13" fill="#3B95D2"></path>
                <path d="M56.376,13.9133 C56.255,14.2063 56.037,14.3053 55.719,14.3053 C52.217,14.3083 48.714,14.3263 45.211,14.3303 C43.983,14.3333 42.752,14.3083 41.523,14.3033 C41.391,14.3033 41.33,14.2743 41.291,14.1383 C40.395,11.0903 39.493,8.0453 38.59,5.0003 C38.354,4.1993 38.111,3.4033 37.869,2.5973 L36.289,2.5973 C35.364,2.5973 34.441,2.5943 33.515,2.6003 C33.393,2.6013 33.312,2.5643 33.256,2.4633 C33.16,2.2843 33.039,2.1143 32.98,1.9203 C32.859,1.5413 33.078,1.2523 33.302,0.9773 C33.355,0.9133 33.41,0.8553 33.464,0.7943 L39.051,0.7943 C39.264,0.9593 39.468,1.1233 39.547,1.4043 C39.713,1.9983 39.893,2.5873 40.069,3.1773 C40.992,6.2583 41.918,9.3413 42.837,12.4223 C42.887,12.5903 42.951,12.6453 43.133,12.6453 C47.371,12.6393 51.607,12.6403 55.843,12.6393 C55.975,12.6393 56.068,12.6703 56.131,12.7893 C56.211,12.9393 56.295,13.0893 56.376,13.2413 L56.376,13.9133 Z" id="Fill-15" fill="#3B95D2"></path>
                <path d="M42.1631,19.0383 C41.8871,18.9373 41.6131,18.8333 41.3961,18.6183 C40.9531,18.1783 40.7841,17.6513 40.9451,17.0513 C41.1121,16.4323 41.5171,16.0343 42.1581,15.8923 C43.1321,15.6743 43.9561,16.3863 44.0811,17.2173 C44.2071,18.0563 43.6001,18.8683 42.8691,19.0073 C42.8561,19.0083 42.8451,19.0283 42.8341,19.0383 L42.1631,19.0383 Z" id="Fill-17" fill="#3B95D2"></path>
                <path d="M54.4668,19.0383 C54.2408,18.9263 53.9898,18.8463 53.7928,18.6953 C53.2918,18.3133 53.1048,17.7753 53.2168,17.1693 C53.3428,16.4883 53.7658,16.0463 54.4508,15.8933 C55.3468,15.6913 56.1448,16.2643 56.3398,17.0513 C56.3478,17.0783 56.3638,17.1033 56.3758,17.1293 L56.3758,17.8013 C56.2408,18.0483 56.1308,18.3123 55.9648,18.5353 C55.7558,18.8183 55.4308,18.9403 55.1038,19.0383 L54.4668,19.0383 Z" id="Fill-19" fill="#3B95D2"></path>
            </g>
        </g>
    </g>
</svg>