<?xml version="1.0" encoding="UTF-8" standalone="no"?>
<svg width="12px" height="10px" viewBox="0 0 12 10" version="1.1" xmlns="http://www.w3.org/2000/svg" xmlns:xlink="http://www.w3.org/1999/xlink">
    <!-- Generator: Sketch 39.1 (31720) - http://www.bohemiancoding.com/sketch -->
    <title>Shape</title>
    <desc>Created with Sketch.</desc>
    <defs></defs>
    <g id="ekomerse" stroke="none" stroke-width="1" fill="none" fill-rule="evenodd">
        <g id="Artboard-4" transform="translate(-127.000000, -554.000000)"></g>
        <g id="ekomers-standart-copy-8" transform="translate(-43.000000, -334.000000)" fill="#178FFC">
            <g id="Group-6" transform="translate(42.000000, 332.000000)">
                <g id="header" transform="translate(1.000000, 0.000000)">
                    <path d="M10.625,2 L0.625,2 L0.625,3.25 L10.625,3.25 L10.625,2 L10.625,2 Z M11.25,8.25 L11.25,7 L10.625,3.875 L0.625,3.875 L0,7 L0,8.25 L0.625,8.25 L0.625,12 L6.875,12 L6.875,8.25 L9.375,8.25 L9.375,12 L10.625,12 L10.625,8.25 L11.25,8.25 L11.25,8.25 Z M5.625,10.75 L1.875,10.75 L1.875,8.25 L5.625,8.25 L5.625,10.75 L5.625,10.75 Z" id="Shape"></path>
                </g>
            </g>
        </g>
    </g>
</svg>