<?xml version="1.0" encoding="UTF-8" standalone="no"?>
<svg width="9px" height="13px" viewBox="0 0 9 13" version="1.1" xmlns="http://www.w3.org/2000/svg" xmlns:xlink="http://www.w3.org/1999/xlink">
    <!-- Generator: Sketch 39.1 (31720) - http://www.bohemiancoding.com/sketch -->
    <title>Mask Copy</title>
    <desc>Created with Sketch.</desc>
    <defs></defs>
    <g id="transport" stroke="none" stroke-width="1" fill="none" fill-rule="evenodd">
        <g id="ekomers-standart-copy-7" transform="translate(-300.000000, -386.000000)" fill="#178FFC">
            <g id="Group-10" transform="translate(300.000000, 385.833333)">
                <path d="M4.16666667,0.833333333 C1.8452381,0.833333333 0,2.67857143 0,5 C0,8.0952381 4.16666667,12.7380952 4.16666667,12.7380952 C4.16666667,12.7380952 8.33333333,8.0952381 8.33333333,5 C8.33333333,2.67857143 6.48809524,0.833333333 4.16666667,0.833333333 L4.16666667,0.833333333 Z M2.67857143,5 C2.67857143,4.16666667 3.33333333,3.51190476 4.16666667,3.51190476 C5,3.51190476 5.6547619,4.16666667 5.6547619,5 C5.6547619,5.83333333 5,6.48809524 4.16666667,6.48809524 C3.33333333,6.48809524 2.67857143,5.83333333 2.67857143,5 Z" id="Mask-Copy"></path>
            </g>
        </g>
    </g>
</svg>