<?xml version="1.0" encoding="UTF-8" standalone="no"?>
<svg width="13px" height="11px" viewBox="0 0 13 11" version="1.1" xmlns="http://www.w3.org/2000/svg" xmlns:xlink="http://www.w3.org/1999/xlink">
    <!-- Generator: Sketch 39.1 (31720) - http://www.bohemiancoding.com/sketch -->
    <title>Fill 4</title>
    <desc>Created with Sketch.</desc>
    <defs></defs>
    <g id="transport" stroke="none" stroke-width="1" fill="none" fill-rule="evenodd">
        <g id="Artboard-3" transform="translate(-220.000000, -792.000000)" fill="#FEFEFE">
            <g id="Group-4" transform="translate(210.833333, 780.833333)">
                <g id="Page-1">
                    <path d="M20.1910449,12.9115927 C20.6858483,12.5931657 21.0652584,12.0917893 21.2449213,11.4910871 C20.7822528,11.7843174 20.2702865,11.9939242 19.7247247,12.1162556 C19.2905393,11.614514 18.6675618,11.3011994 17.9825056,11.3011994 C16.6631517,11.3011994 15.5939382,12.4514803 15.5939382,13.8734466 C15.5939382,14.0731938 15.6143876,14.27075 15.6538258,14.4566208 C13.6724213,14.3543736 11.9097528,13.3264242 10.7309888,11.7733624 C10.5261292,12.1524073 10.4089101,12.5931657 10.4089101,13.066059 C10.4089101,13.9563399 10.8299494,14.7483904 11.4719157,15.2026601 C11.0797247,15.1869579 10.7112697,15.0774073 10.3899213,14.8831376 L10.3899213,14.9181938 C10.3899213,16.1619579 11.2130112,17.1997669 12.3055955,17.4400478 C12.1054831,17.4981096 11.8940506,17.5247669 11.6745843,17.5247669 C11.5212135,17.5247669 11.3755112,17.514177 11.2279831,17.4791208 C11.5307079,18.504514 12.4136854,19.2494579 13.4587978,19.2644298 C12.6411854,19.9578848 11.6114101,20.3650478 10.4921685,20.3650478 C10.2986292,20.3650478 10.1080112,20.3537275 9.92177528,20.3292612 C10.978573,21.0621545 12.2318315,21.4894017 13.5836854,21.4894017 C17.9770281,21.4894017 20.3809326,17.5693174 20.3809326,14.1714242 C20.3809326,14.0626039 20.3783764,13.952323 20.3728989,13.8424073 C20.8392191,13.4746826 21.2449213,13.0211433 21.5651742,12.5066208 C21.1346404,12.7147669 20.6763539,12.849514 20.1910449,12.9115927 Z" id="Fill-4"></path>
                </g>
            </g>
        </g>
    </g>
</svg>