<?xml version="1.0" encoding="UTF-8" standalone="no"?>
<svg width="11px" height="8px" viewBox="0 0 11 8" version="1.1" xmlns="http://www.w3.org/2000/svg" xmlns:xlink="http://www.w3.org/1999/xlink">
    <!-- Generator: Sketch 39.1 (31720) - http://www.bohemiancoding.com/sketch -->
    <title>Fill 4</title>
    <desc>Created with Sketch.</desc>
    <defs></defs>
    <g id="transport" stroke="none" stroke-width="1" fill="none" fill-rule="evenodd">
        <g id="Artboard-3" transform="translate(-388.000000, -793.000000)" fill="#FEFEFE">
            <g id="Group-4" transform="translate(210.833333, 780.833333)">
                <g id="Page-1" transform="translate(166.666667, 0.000000)">
                    <path d="M17.6249691,16.6268904 L15.4387051,18.2150084 C15.393059,18.2486039 15.3382837,18.2654017 15.2838736,18.2654017 C15.2433399,18.2654017 15.2020758,18.2555421 15.1644635,18.2369185 C15.0764579,18.1920028 15.0209522,18.1010758 15.0209522,18.0021152 L15.0209522,14.8266096 C15.0209522,14.7272837 15.0764579,14.6367219 15.1644635,14.591441 C15.2524691,14.5465253 15.358368,14.5552893 15.4387051,14.6133511 L17.6249691,16.2007388 C17.6932556,16.2504017 17.7334242,16.3296433 17.7334242,16.4139972 C17.7334242,16.4983511 17.6936208,16.5772275 17.6249691,16.6268904 M21.249632,13.8307949 C21.2434242,13.7895309 21.2350253,13.7489972 21.2237051,13.709559 C21.2189579,13.6913006 21.2134803,13.6723118 21.2072725,13.6540534 C21.0688736,13.2446994 20.6821601,12.9489129 20.2256994,12.9485478 L20.2969073,12.9485478 C20.2969073,12.9485478 18.4623006,12.67175 16.0211489,12.6604298 C13.5803624,12.67175 11.7453904,12.9485478 11.7453904,12.9485478 L11.8169635,12.9485478 C11.3601376,12.9489129 10.9737893,13.2446994 10.8353904,13.6540534 C10.8295478,13.6723118 10.8237051,13.6913006 10.8185927,13.709559 C10.8076376,13.7489972 10.7992388,13.7895309 10.7933961,13.8307949 C10.7265702,14.3066096 10.6166545,15.2567781 10.6067949,16.3950084 C10.6166545,17.5339691 10.7265702,18.4830421 10.7933961,18.9595871 C10.7992388,19.0008511 10.8076376,19.0410197 10.8185927,19.0804579 C10.8237051,19.0994466 10.8295478,19.1173399 10.8353904,19.1359635 C10.9737893,19.5460478 11.3601376,19.8418343 11.8169635,19.8418343 L11.7453904,19.8418343 C11.7453904,19.8418343 13.5803624,20.118632 16.0211489,20.1299522 C18.4623006,20.118632 20.2969073,19.8418343 20.2969073,19.8418343 L20.2256994,19.8418343 C20.6821601,19.8418343 21.0688736,19.5460478 21.2072725,19.1359635 C21.2134803,19.1173399 21.2189579,19.0994466 21.2237051,19.0804579 C21.2350253,19.0410197 21.2434242,19.0008511 21.249632,18.9595871 C21.3157275,18.4830421 21.4260084,17.5339691 21.435868,16.3950084 C21.4260084,15.2567781 21.3157275,14.3066096 21.249632,13.8307949" id="Fill-4"></path>
                </g>
            </g>
        </g>
    </g>
</svg>